<?xml version="1.0" encoding="utf-8" ?>
<svg baseProfile="full" height="600" version="1.1" width="800" xmlns="http://www.w3.org/2000/svg" xmlns:ev="http://www.w3.org/2001/xml-events" xmlns:xlink="http://www.w3.org/1999/xlink"><defs /><polyline fill="none" points="115.38461538404226,337.28022382454947 72.72727272845805,338.90103684272617 65.03496503457427,337.28022382454947 53.146853145211935,331.6073756548576 42.65734265744686,332.4177827858366 32.1678321659565,328.3657463057898 20.279720278456807,327.5553387622349 12.587412586435676,329.17615376599133 4.895104894414544,334.8490036786534 0.6993006989359856,342.95306793646887 0.0,350.24671868700534 0.6993006989359856,355.9195535215549 4.1958041954785585,361.59238429460675 6.993006993085146,364.0235962420702 7.6923076920211315,370.506824455224 20.279720278456807,376.990047365427 31.46853146702051,376.1796447900124 45.45454545505345,372.93803366739303 54.54545454494655,376.1796447900124 61.5384615380317,380.2316568335518 84.61538461409509,382.66286306548864 120.97902097925544,390.7668784498237 156.64335664361715,392.3876805338077 169.23076923005283,391.5772795318626 183.21678321622312,388.3356747031212 187.41258741356432,389.1460760352202 191.60839160718024,392.3876805338077 202.79720279574394,394.0084822825156 218.18181818164885,393.19808145146817 223.77622377686203,394.0084822825156 244.05594405718148,399.6812858041376 254.54545454494655,404.5436855950393 258.7412587404251,405.35408526845276 282.51748251728714,406.16448485990986 302.0979020986706,404.5436855950393 320.27972028031945,407.7852837955579 329.37062937021255,411.837279682979 358.7412587404251,413.4580774586648 403.4965034946799,419.1308670658618 418.88111888058484,415.8892735019326 441.25874125771224,420.75166334817186 465.7342657353729,419.94126524822786 481.8181818164885,428.0452425288968 508.3916083909571,430.4764340976253 521.6783216781914,436.1492115277797 544.0559440553188,438.58040061127394 547.5524475518614,440.20119291963056 552.4475524481386,446.6843588389456 558.7412587422878,450.73633484961465 562.9370629377663,450.73633484961465 574.12587412633,450.73633484961465 586.7132867146283,443.44277654308826 606.2937062941492,441.01158895064145 674.825174825266,446.6843588389456 675.524475524202,445.87396339001134 675.524475524202,441.01158895064145 672.727272728458,417.510070449207 674.12587412633,414.2684762231074 676.223776223138,414.2684762231074 689.5104895122349,415.8892735019326 701.3986013997346,421.5620613680221 726.5734265744686,421.5620613680221 733.5664335675538,423.18285715347156 744.7552447561175,423.18285715347156 752.4475524481386,425.6140502151102 773.426573427394,426.4244477371685 776.223776223138,428.855639802292 783.9160839188844,427.2348451744765 800.0,428.0452425288968 796.5034965053201,426.4244477371685 772.727272728458,426.4244477371685 748.951048951596,424.8036526092328 734.2657342664897,421.5620613680221 722.37762237899,419.94126524822786 697.9020979013294,420.75166334817186 692.3076923079789,419.94126524822786 683.9160839170218,412.64767861319706 679.0209790207446,412.64767861319706 675.524475524202,415.0788749032654 669.9300699308515,411.837279682979 654.5454545449466,410.21648157574236 639.8601398617029,406.97488436987624 602.7972027976066,405.35408526845276 575.524475524202,399.6812858041376 553.8461538441479,398.0604852116667 543.3566433563828,393.19808145146817 539.8601398617029,386.7148717911914 538.4615384619683,381.0420589945279 535.6643356643617,378.61085226526484 527.2727272734046,379.4212545915507 517.4825174827129,382.66286306548864 510.48951049149036,387.52527328720316 506.29370629414916,395.62928370339796 502.0979020986706,398.8708855509758 496.5034965034574,400.49168597720563 489.5104895122349,401.302086064592 472.0279720276594,394.8188830357976 452.4475524481386,392.3876805338077 444.7552447542548,388.3356747031212 430.7692307680845,385.09406855050474 420.27972028031945,381.0420589945279 410.48951049149036,379.4212545915507 409.79020979069173,378.61085226526484 395.80419580452144,377.8004498574883 363.6363636367023,370.506824455224 338.4615384619683,370.506824455224 320.27972028031945,366.4548074421473 309.0909090898931,367.26521101174876 290.90909090824425,365.6444037919864 266.4335664343089,361.59238429460675 250.349650349468,357.540362726897 234.96503496356308,360.7819801494479 217.48251748271286,361.59238429460675 180.4195804167539,358.35076720733196 163.63636363483965,359.16117160301656 139.86013985797763,351.867529053241 135.66433566436172,348.6259079896845 110.48951048962772,338.90103684272617 90.20979020930827,338.0906303762458 73.42657342739403,339.7114432286471 50.34965034946799,331.6073756548576 39.16083916090429,331.6073756548576 28.67132867127657,326.7449311343953 13.986013986170292,329.17615376599133 9.790209788829088,331.6073756548576 4.1958041954785585,340.52184952935204 2.7972027957439423,355.9195535215549 13.986013986170292,376.1796447900124 23.076923076063395,377.8004498574883 34.265734266489744,376.1796447900124 34.265734266489744,372.93803366739303 41.958041958510876,365.6444037919864 45.45454545505345,359.97157591721043 47.552447551861405,353.48833908932284 45.45454545505345,340.52184952935204 46.85314685292542,334.0385967977345 54.54545454494655,334.0385967977345 74.825174825266,340.52184952935204 88.11188811250031,342.1426618839614 125.87412587366998,343.76347390795127 146.85314685292542,351.05712391017005 159.4405594393611,357.540362726897 199.30069929920137,363.2131923409179 207.69230769202113,366.4548074421473 227.97202797234058,366.4548074421473 227.27272727154195,361.59238429460675 220.27972028031945,353.48833908932284 203.49650349467993,350.24671868700534 200.0,344.57387979654595 198.60139860026538,334.0385967977345 192.30769230797887,312.96798880118877 186.7132867127657,297.5702013913542 183.21678321622312,291.8973248056136 179.72027971968055,280.55155945941806 175.52447552233934,270.0161913842894 172.02797202765942,265.15370909078047 166.4335664343089,251.37665972486138 161.5384615380317,244.89333409396932 158.04195804148912,234.35791863081977 151.7482517492026,223.01207093941048 146.85314685292542,206.80368892708793 133.5664335656911,180.05978615954518 128.67132867127657,149.26366515038535" stroke="green" stroke-width="10" /></svg>