<?xml version="1.0" encoding="utf-8" ?>
<svg baseProfile="full" height="600" version="1.1" width="800" xmlns="http://www.w3.org/2000/svg" xmlns:ev="http://www.w3.org/2001/xml-events" xmlns:xlink="http://www.w3.org/1999/xlink"><defs /><polyline fill="none" points="381.9085215330124,-1.1641532182693481e-10 378.44985653227195,0.925066179712303 377.9177542240359,4.00861806073226 378.1838053781539,11.409129710984416 378.9819588395767,20.351390388561413 378.9819588395767,39.46923805796541 377.9177542240359,51.4949188468745 378.71590768545866,66.6040395500604 379.24800999322906,99.59716243401635 379.51406114781275,125.8063953059027 378.44985653227195,152.94041994598228 379.24800999322906,163.42395499104168 378.9819588395767,183.7742425184697 380.3122146092355,194.87434147519525 383.50482845585793,207.82440528820734 394.94502807594836,232.49103967635892 398.1376419221051,239.5826597264968 403.9907673089765,255.92415548930876 405.8531253868714,262.0907346539898 406.65127884829417,270.4155965272803 406.65127884829417,296.9316700847121 405.58707423275337,309.57297193305567 406.11917654052377,329.30562989704777 408.7796880793758,333.0054888940649 414.89886461989954,338.2469480370637 415.1649157740176,338.86358968983404 413.5686088502407,340.0968726184219 407.4494323101826,341.33015504374634 406.38522769417614,343.48839807184413 407.18338115653023,356.7461428005481 406.65127884829417,372.4703691484174 406.38522769417614,435.98307667998597 404.78892077086493,474.8299959881697 406.65127884829417,487.47055233689025 409.84389269538224,501.960881040548 421.5501434681937,547.589546572417 423.41250154562294,552.2140349689871 427.6693200087175,556.8385162770282 433.7884965487756,561.4629904959584 434.320598856546,563.0044803268975 433.7884965487756,563.3127781985095 430.5958827016875,561.7712885247311 421.5501434681937,562.3878844889114 408.2475857725367,562.6961824233877 391.75241422792897,562.3878844889114 388.02769807353616,563.0044803268975 387.22954461118206,563.9293738475535 386.1653399961069,566.7040527083445 384.8350842259824,567.3206476641353 374.4590892228298,568.8621345023857 368.8720149905421,568.8621345023857 367.0096569121815,570.0953234069748 365.67940114298835,572.5616997011239 365.67940114298835,575.0280739800073 368.60596383642405,581.5022968695266 370.4683219138533,592.9092272043927 370.2022707602009,597.5336461358238 368.8720149905421,599.3834117234219 367.8078103750013,599.691705877427 368.073861528188,599.9999999998836 368.8720149905421,598.7668233201839 368.60596383642405,599.691705877427" stroke="green" stroke-width="10" /></svg>