<?xml version="1.0" encoding="utf-8" ?>
<svg baseProfile="full" height="600" version="1.1" width="800" xmlns="http://www.w3.org/2000/svg" xmlns:ev="http://www.w3.org/2001/xml-events" xmlns:xlink="http://www.w3.org/1999/xlink"><defs /><polyline fill="none" points="121.36006974708289,248.270055225119 113.68788142967969,245.845193981193 101.83086312189698,245.0369067345746 82.9991281600669,247.46176822762936 77.41935483831912,244.22861940367147 70.44463818520308,243.42033199220896 63.46992153394967,239.37889368925244 47.428073233924806,240.1871815137565 37.66346991993487,236.9540297179483 28.59633827302605,236.9540297179483 17.436791630461812,239.37889368925244 9.06713164690882,244.22861940367147 5.57977332174778,248.270055225119 4.184829990379512,253.11977548664436 4.184829990379512,257.1612067660317 9.76460331119597,270.90205766120926 10.462074977345765,277.3683321722783 23.714036617428064,283.8346013976261 46.033129904419184,283.02631803322583 55.797733216546476,288.68429984757677 59.285091541707516,289.49258263222873 76.02441150695086,291.10914795612916 114.38535309489816,300.00025132717565 154.83870967663825,301.6168145025149 174.36791630182415,299.19196961447597 196.68700958881527,300.00025132717565 227.37576285842806,307.2747830133885 242.0226678289473,312.93274747533724 250.39232781156898,313.74102778406814 289.45074106380343,314.54930800711736 304.7951176967472,313.74102778406814 314.5597210107371,314.54930800711736 334.08892763685435,320.2072672639042 341.0636442890391,319.398987616878 375.9372275490314,325.0569434063509 403.1386224916205,325.8652224736288 412.20575414132327,324.2486642547883 431.7349607665092,328.2900591818616 470.09590235352516,327.4817803609185 484.0453356578946,332.33145204233006 495.9023539656773,333.94800860621035 508.4568439386785,342.03078647889197 511.24673060234636,344.455618230626 525.8936355700716,347.6887260735966 535.6582388840616,347.6887260735966 544.0278988666832,351.7301090210676 554.4899738430977,358.1963174380362 558.6748038362712,359.8128687161952 567.0444638188928,359.00459311762825 585.1787271136418,350.92183259595186 601.2205754136667,349.30527950031683 661.2031386233866,354.15493779676035 676.5475152563304,354.15493779676035 677.2449869215488,351.7301090210676 673.0601569321007,342.03078647889197 672.3626852659509,330.71489514550194 670.9677419345826,326.673501459416 670.9677419345826,323.4403850226663 673.0601569321007,321.82382630882785 681.429816913791,322.6321057062596 694.681778552942,329.90661657461897 728.1604184834287,329.09833791852 768.6137750651687,334.7562867659144 784.6556233651936,333.94800860621035 800.0,338.79767632111907 797.9075850043446,337.1811207490973 767.916303399019,333.94800860621035 746.2946817781776,333.1397303654812 723.9755884911865,328.2900591818616 696.7741935467348,327.4817803609185 685.6146469051018,321.82382630882785 679.3374019181356,321.01554682664573 674.4551002597436,321.82382630882785 670.2702702702954,321.82382630882785 665.3879686128348,321.01554682664573 660.5056669572368,321.82382630882785 651.4385353093967,319.398987616878 634.0017436780035,318.59070788975805 599.1281604180112,313.74102778406814 597.0357454214245,312.12446708464995 584.4812554484233,308.8913446990773 550.3051438536495,306.46650204388425 541.9354838700965,301.6168145025149 539.8430688744411,293.5339953219518 539.8430688744411,286.25945099350065 536.3557105483487,285.45116787869483 531.4734088918194,285.45116787869483 515.4315605927259,291.91743049491197 508.4568439386785,297.57540594320744 502.87707061786205,305.65822099428624 492.4149956405163,309.69962542131543 484.0453356578946,308.08306389907375 470.79337401874363,303.23337734816596 454.0540540535003,303.23337734816596 451.2641673926264,300.00025132717565 435.91979075875133,295.15055981790647 403.1386224916205,291.10914795612916 396.1639058403671,287.87601697817445 389.88666085433215,287.87601697817445 379.42458587605506,283.02631803322583 377.3321708794683,283.8346013976261 373.8448125543073,287.0677340258844 375.9372275490314,287.0677340258844 358.50043591763824,281.4097510590218 337.57628596387804,281.4097510590218 313.1647776803002,276.56004814850166 293.63557105511427,276.56004814850166 283.1734960777685,274.94347985088825 281.7785527454689,272.5186267835088 261.55187445599586,270.09377297433093 239.23278116807342,270.90205766120926 219.0061028758064,276.56004814850166 209.24149956274778,273.32691122218966 197.38448125496507,272.5186267835088 184.82999128196388,269.28548820642754 162.51089799311012,268.47720335423946 156.2336530070752,266.8606334058568 142.9816913679242,257.9694927735254 112.9904097635299,249.88662897609174 101.13339145574719,247.46176822762936 88.578901482746,247.46176822762936 79.51176983490586,248.270055225119 71.83958151750267,247.46176822762936 62.7724498687312,245.0369067345746 55.100261551328,240.99546925816685 46.033129904419184,240.99546925816685 37.66346991993487,241.80375691968948 27.8988666087389,236.9540297179483 16.739319966174662,236.9540297179483 8.36965998262167,240.1871815137565 2.09241499658674,248.270055225119 0.0,254.73634824622422 1.394943330436945,263.62749251397327 9.76460331119597,277.3683321722783 10.462074977345765,282.2180345878005 17.436791630461812,286.25945099350065 23.714036617428064,287.87601697817445 29.991281603462994,286.25945099350065 39.05841325316578,283.02631803322583 43.940714908763766,283.02631803322583 49.520488229580224,284.642884678673 57.89014821220189,291.10914795612916 90.67131647653878,294.3422776097432 103.22580644953996,299.19196961447597 116.4777680914849,301.6168145025149 160.41848299838603,302.42509596515447 162.51089799311012,300.808532955125 167.39319965150207,302.42509596515447 175.7628596322611,300.808532955125 184.1325196158141,305.65822099428624 193.19965126365423,308.08306389907375 218.30863121058792,308.8913446990773 230.16564952023327,312.12446708464995 239.23278116807342,311.31618661340326 258.761987792328,316.16586820827797 274.8038360932842,314.54930800711736 285.2659110715613,315.3575881505385 288.7532693995163,314.54930800711736 295.0305143855512,315.3575881505385 297.8204010454938,313.74102778406814 322.2319093281403,317.7824280792847 334.08892763685435,322.6321057062596 356.40802092384547,324.2486642547883 397.558849170804,330.71489514550194 405.2310374882072,330.71489514550194 416.3905841326341,327.4817803609185 444.9869224065915,331.52317363396287 468.0034873569384,330.71489514550194 473.5832606796175,334.7562867659144 475.6756756743416,338.79767632111907 479.8605056665838,340.41423156578094 480.5579773308709,342.03078647889197 484.7428073231131,339.6059539858252 492.4149956405163,339.6059539858252 497.29729729611427,337.1811207490973 500.7846556240693,337.1811207490973 505.66695727966726,338.79767632111907 507.7593722753227,342.8390638111159 513.3391455970705,347.6887260735966 536.3557105483487,349.30527950031683 541.9354838700965,351.7301090210676 553.7925021788105,360.6211442328058 562.1621621614322,363.0459702820517 569.1368788126856,363.0459702820517 587.9686137745157,355.77148989913985 606.1028770692647,353.3466616193764 627.0270270258188,353.3466616193764 650.7410636451095,356.57976582925767 681.429816913791,358.1963174380362 690.4969485606998,357.3880416736938 714.9084568442777,361.42941966466606 717.0008718399331,360.6211442328058 707.933740192093,358.1963174380362 675.8500435911119,355.77148989913985 672.3626852659509,344.455618230626 672.3626852659509,336.3728428366594 670.2702702702954,327.4817803609185 665.3879686128348,323.4403850226663 638.1865736702457,316.16586820827797 608.1952920667827,312.93274747533724 597.0357454214245,312.93274747533724 539.8430688744411,306.46650204388425 535.6582388840616,302.42509596515447 535.6582388840616,291.10914795612916 532.8683522231877,289.49258263222873 528.6835222309455,288.68429984757677 517.5239755893126,291.10914795612916 511.24673060234636,294.3422776097432 508.4568439386785,296.7671239846386 506.3644289439544,304.0416586473584 503.5745422830805,306.46650204388425 493.11246730573475,310.5079060574062 486.8352223187685,310.5079060574062 474.97820400912315,306.46650204388425 465.2136006979272,300.00025132717565" stroke="green" stroke-width="10" /></svg>