<?xml version="1.0" encoding="utf-8" ?>
<svg baseProfile="full" height="600" version="1.1" width="800" xmlns="http://www.w3.org/2000/svg" xmlns:ev="http://www.w3.org/2001/xml-events" xmlns:xlink="http://www.w3.org/1999/xlink"><defs /><polyline fill="none" points="392.749549634289,0.0 392.2124792370014,0.9337018303340301 386.5732400631532,5.602206683484837 384.15642327442765,10.893170192022808 384.42495847307146,25.521080261911266 384.15642327442765,38.90400023362599 383.6193528776057,42.01629876962397 383.08228247985244,52.28686135949101 384.15642327442765,62.55738929170184 383.88788807578385,89.0116198270116 384.42495847307146,104.57282450352795 384.42495847307146,127.6032614276046 383.08228247985244,142.54183004423976 383.35081767849624,151.8783982002642 384.42495847307146,162.14859009638894 384.15642327442765,181.75522386003286 385.7676344672218,193.27017212694045 388.45298645459116,204.78507683612406 393.5551552302204,215.98872609762475 403.22242238465697,234.35017322341446 411.0099431485869,258.93566629034467 411.8155487445183,264.53739643015433 412.3526191422716,269.82790987507906 412.0840839436278,295.0355241431389 411.2784783472307,307.4836517346557 411.0099431485869,319.93172842788044 410.4728727512993,330.51255359873176 412.3526191422716,337.9813492257381 411.2784783472307,401.1541793519864 410.7414079499431,450.01108507066965 411.0099431485869,469.9270510143833 412.8896895395592,474.2836512005888 419.60306950844824,481.1297246130416 419.60306950844824,482.37446357880253 417.186252719257,482.99683287146036 412.8896895395592,483.3080174707575 411.5470135458745,484.8639399871463 412.3526191422716,491.0876220986247 426.0479142777622,544.6107631629566 429.2703366628848,559.5472857900895 428.73326626513153,562.036699105287 426.31644947687164,563.2814049989684 412.8896895395592,562.6590521159815 405.1021687765606,563.5925813931972 395.4349016211927,562.9702285733074 393.0180848329328,563.5925813931972 392.48101443517953,565.14846288634 392.749549634289,566.0819914016174 392.2124792370014,567.3266956416192 388.7215216527693,567.3266956416192 384.15642327442765,566.7043435856467 375.56329691503197,567.0155196294654 372.60940972948447,568.5713993737008 370.72966333758086,572.6166829883587 370.9981985366903,575.4172608054942 372.8779449276626,578.8401857502759 373.9520857227035,585.3748499598587 375.56329691503197,591.2871531145647 375.02622651774436,595.3324065543711 373.4150153249502,600.0 373.683550523594,599.0664818834048 372.60940972948447,597.8217906159116 372.60940972948447,597.5106177197304" stroke="green" stroke-width="10" /></svg>