<?xml version="1.0" encoding="utf-8" ?>
<svg baseProfile="full" height="600" version="1.1" width="800" xmlns="http://www.w3.org/2000/svg" xmlns:ev="http://www.w3.org/2001/xml-events" xmlns:xlink="http://www.w3.org/1999/xlink"><defs /><polyline fill="none" points="414.1224892116152,0.0 428.5114404829219,22.235785784665495 437.03822642192245,89.25098326732405 441.3016193914227,106.8538069826318 450.36132945120335,167.38203196204267 451.1607156326063,177.57288931612857 453.0259500569664,191.4694575695321 455.957032723818,207.52763459365815 458.8881153902039,219.26240227895323 460.4868877530098,232.54116336384322 467.4149013287388,271.45068530912977 475.14230108540505,305.1101055450272 482.33677672129124,330.43162403220776 491.6629488421604,359.1496747286292 498.85742447758093,374.89816727349535 504.1866656895727,390.64657772530336 515.6445342944935,421.83436400222126 520.4408513847739,435.7298086679075 522.5725478697568,445.3021889280062 527.9017890808173,459.5063101958949 527.63532702066,461.3590167434886 527.9017890808173,464.4468584631104 530.5664096875116,471.2400991389295 533.7639544140548,482.35627820773516 553.7486089584418,536.7014538320946 555.6138433818705,543.4945320589468 554.8144572004676,545.9647385370918 552.1498365942389,547.1998410187662 537.2279612021521,546.8910654451465 479.1392319938168,548.1261675483547 466.3490530862473,548.1261675483547 462.3521221773699,547.1998410187662 422.1163510289043,550.2875950136222 404.2633929690346,549.6700444669696 390.4073658194393,550.2875950136222 390.67382788006216,550.2875950136222 386.14397284947336,551.2139205973363 383.21289018308744,553.3753458530409 378.4165730928071,559.8596123468596 376.2848766082898,561.0947091490962 356.0337600032799,561.0947091490962 349.10574642848223,560.4771608111914 342.71065697446465,561.7122573602246 341.11188461072743,565.417543980293 337.64787782356143,565.417543980293 332.0521745509468,564.7999965258641 327.7887815819122,565.1087702693185 325.6570850969292,566.9614120639162 321.92661624820903,567.8877325353678 320.594305946026,570.357919071801 322.72600243100896,576.8421491218032 323.5253886124119,582.0912775426405 325.39062303630635,589.5017962594284 322.1930783088319,591.6631941292435 314.4656785526313,593.2070488034515 305.67243055347353,594.1333612289745 302.4748858259991,593.8245904523646 296.3462584326044,590.4281098216306 275.5622177068144,592.5895070282277 266.2360455864109,594.1333612289745 258.77510788990185,594.1333612289745 257.4427975877188,593.5158196433913 256.376949344296,583.326365257497 253.44586667837575,570.357919071801 247.31723928451538,549.0524937942391 245.18554280046374,537.9365601004101 244.38615661812946,528.9820282194996 245.18554280046374,537.319007030339 248.11662546684965,550.5963702400913 251.31417019385844,559.2420637565665 251.84709431417286,563.8736751079559 252.3800184354186,564.7999965258641 254.2452528597787,564.4912227516761 259.0415699505247,562.638579440536 265.9695835253224,562.3298054457409 277.4274521311745,562.638579440536 313.13336824951693,561.0947091490962 315.79798885528,561.4034832704347 317.39676121855155,562.947353405063 317.9296853397973,572.8281035892433 320.594305946026,579.9298728266731 320.594305946026,586.1053107704502 323.2589265513234,591.0456520386506 323.2589265513234,595.6772146419389 324.8576989150606,595.0596733716084 326.45647127879784,595.6772146419389 324.32477479381487,596.2947557860753 324.5912368549034,598.1473784608534 325.12416097614914,598.4561487963656 324.5912368549034,597.8386080940254 325.12416097614914,598.1473784608534 325.6570850969292,597.8386080940254 327.5223195212893,593.8245904523646 327.25585746066645,594.4421319752 319.52845770306885,596.6035263108788 317.6632232791744,595.9859852296067 314.4656785526313,597.2210672653746 312.0675200074911,600.0" stroke="green" stroke-width="10" /></svg>