<?xml version="1.0" encoding="utf-8" ?>
<svg baseProfile="full" height="600" version="1.1" width="800" xmlns="http://www.w3.org/2000/svg" xmlns:ev="http://www.w3.org/2001/xml-events" xmlns:xlink="http://www.w3.org/1999/xlink"><defs /><polyline fill="none" points="440.5065619824454,544.7729377669748 412.7801452241838,567.3659019218758 409.3143431292847,568.3700312501751 91.32700093928725,429.2961644541938 85.69507253542542,428.29200669098645 83.52894622739404,426.78576966165565 83.09572096448392,425.27953217038885 80.92959465552121,424.27537358459085 78.76346834655851,421.26289660064504 75.7308915136382,418.25041776685975 72.69831468071789,413.2296156059019 69.66573784779757,410.21713184472173 68.79928732383996,408.2088083103299 69.23251258581877,405.69840273889713 68.79928732383996,402.1838327816222 33.27481585275382,382.60261126048863 32.40836532972753,384.6109452662058 34.14126637671143,389.63177668792196 37.607068471610546,390.63594235596247 41.50609582848847,403.1879958831705 44.97189792338759,405.69840273889713 57.102205254137516,407.7067272993736 60.568007349036634,407.7067272993736 62.300908396951854,406.7025651205331 69.23251258581877,407.2046462353319 69.66573784779757,411.7233739553485 71.83186415676028,415.2379370855633 137.68210395704955,460.92702889442444 159.34336704853922,479.00171710550785 172.7733501661569,507.1177665477153 191.40203642379493,523.6860774520319 177.97205330710858,553.308069774881 181.0046301400289,557.8266630675644 185.77010802086443,557.3245973521844 227.79295841883868,529.7109039241914 320.06993919052184,551.8018710867036 376.82244849205017,554.8142680018209 393.2850084416568,561.341121643316 397.61726105958223,561.8431869493797 480.36328607052565,567.8679666121025 483.82908816542476,569.3741603742819 536.6825701100752,579.4154403104912 611.1973151462153,583.9340095836669 637.1908308556303,587.448449478019 636.7576055945829,588.9546372327022 638.057281379588,589.9587621483952 646.7217866173014,585.9422612604685 648.8879129253328,586.4443240491673 649.7543634492904,588.9546372327022 659.2853192100301,590.9628868571017 727.3016853192821,597.991754071787 766.291958884336,600.0 767.5916346702725,596.9876307994127 712.572026415728,567.8679666121025 685.7120601823553,564.3535127069335 683.5459338724613,561.341121643316 643.6892097834498,562.8473174069077 639.7901824275032,564.3535127069335 628.0931003568694,566.8638371815905 625.926974048838,566.3617723886855 620.2950456449762,562.3452522044536 614.6631172411144,563.3493825588375 614.6631172411144,561.8431869493797 613.3634414561093,560.8390562869608 599.9334583384916,557.8266630675644 551.4122290126979,549.7936054505408 543.6141742989421,549.7936054505408 540.5815974669531,550.2956719361246 490.7606923542917,547.2832722507883 472.5652313577011,547.2832722507883 464.3339513828978,522.1798696804326 462.1678250739351,512.6405430603772 437.040759886615,453.8979655150324 438.7736609345302,453.39588917349465 423.61077677085996,285.69951959652826 444.405589338392,119.00164419226348 466.5000776918605,117.99742297572084 467.3665282148868,117.99742297572084 468.2329787388444,115.98897992470302 461.3013745499775,71.30090953735635 460.8681492879987,63.76917222957127 434.8746335776523,0.0 434.44140831567347,0.5021227009128779 437.4739851485938,1.0042453515343368" stroke="green" stroke-width="10" /></svg>