<?xml version="1.0" encoding="utf-8" ?>
<svg baseProfile="full" height="600" version="1.1" width="800" xmlns="http://www.w3.org/2000/svg" xmlns:ev="http://www.w3.org/2001/xml-events" xmlns:xlink="http://www.w3.org/1999/xlink"><defs /><polyline fill="none" points="393.3827161761001,0.0 392.3239507637918,1.8406742613296956 388.08888911549,5.828797954483889 385.9713582918048,9.203360015177168 385.44197558565065,11.65758458361961 385.44197558565065,19.94057768199127 385.9713582918048,34.66584227711428 384.9125928799622,48.77748635876924 385.9713582918048,62.58229134068824 385.9713582918048,75.15994724445045 385.1772842332721,84.0563061669236 385.70666693896055,96.6338720448548 385.44197558565065,110.43845682626124 386.2360496451147,130.6850662784418 384.9125928799622,145.4097873386927 386.2360496451147,163.20206220564432 385.9713582918048,177.6198627258418 387.2948150569573,191.73083444777876 389.1476545277983,200.32008909259457 393.6474075289443,212.59041021903977 400.7940740585327,226.0877055026358 407.67604923667386,244.1862561646849 411.64641953166574,253.38886717846617 412.4404935906641,256.4563979119994 413.76395035535097,269.33999274636153 413.4992590020411,294.8002674903255 412.70518494350836,305.8432110566646 412.96987629588693,318.41984728956595 411.91111088451,327.00873930519447 413.76395035535097,337.13133047975134 412.96987629588693,379.1550559963798 413.23456764919683,394.18529670115095 412.1758022378199,437.4351612308528 411.64641953166574,449.70451286027674 411.38172817835584,471.4824884730624 414.55802441434935,490.19301737030037 419.8518514735624,508.9034296280006 428.85135747492313,544.4835639345692 431.76296235760674,544.7902873961721 436.527406711597,543.8701169160195 437.8508634767495,544.1768404403701 437.05678941775113,544.1768404403701 435.4686412997544,547.8575202935608 430.1748142405413,554.605421634391 426.9985180045478,556.7524779704399 422.76345635717735,557.059200178599 399.73530864715576,556.4457557309652 395.50024699931964,557.059200178599 393.6474075289443,558.28608869866 393.1180248227902,560.7398642344633 391.2651853519492,561.0465860351687 382.53037070296705,560.433142402675 376.70716093759984,560.7398642344633 374.5896301139146,561.9667512500891 372.47209928929806,565.3406879565446 372.47209928929806,569.021341857384 375.38370417198166,575.1557549952995 377.50123499613255,584.6640705825994 377.50123499613255,588.3447007888462 375.9130868781358,592.9454821997788 374.8543214662932,593.2522007096559 375.9130868781358,592.9454821997788 373.7955560539849,588.0379817776848 375.64839552529156,585.8909478194546 374.8543214662932,589.2648576347856 376.44246958428994,592.9454821997788 374.06024740776047,593.2522007096559 369.0311117004603,600.0 362.1491365232505,598.1596926066559 365.325432759244,593.5589191884501 364.53135869977996,593.2522007096559 365.0607414059341,584.9707899390487 366.64888952393085,584.3573511955328 366.64888952393085,584.6640705825994 369.29580305330455,584.6640705825994 364.0019759940915,586.8111054183682" stroke="green" stroke-width="10" /></svg>