<?xml version="1.0" encoding="utf-8" ?>
<svg baseProfile="full" height="600" version="1.1" width="800" xmlns="http://www.w3.org/2000/svg" xmlns:ev="http://www.w3.org/2001/xml-events" xmlns:xlink="http://www.w3.org/1999/xlink"><defs /><polyline fill="none" points="424.307213595137,0.0 424.307213595137,14.01481390662957 424.8007610794157,19.163095255033113 425.04753482108936,39.47011260467116 426.0346297896467,40.614165532868356 424.8007610794157,42.90226998575963 418.3846437847242,44.04632150940597 420.11205997969955,48.62252292735502 421.83947617420927,60.92102713533677 421.3459286899306,78.93966820184141 420.11205997969955,88.09194936789572 420.3588337218389,95.81416330812499 421.3459286899306,110.40050924685784 421.0991549482569,124.12876535090618 421.83947617420927,126.1307970690541 423.3201186270453,126.70280586846638 427.7620459846221,126.70280586846638 422.5797974006273,133.566902337363 421.5927024320699,137.57095083082095 422.33302365848795,149.01105780317448 422.0862499163486,160.45111798716243 422.0862499163486,173.3211297680391 421.0991549482569,182.1871034372598 422.0862499163486,198.48898168525193 422.0862499163486,213.07479222188704 423.3201186270453,225.08657908823807 424.8007610794157,231.6644405159168 426.2814035313204,232.8084148374619 429.4894621791318,231.95043414074462 431.4636521153152,231.09245317964815 432.94429456815124,232.23642773530446 432.6975208260119,234.2383820815012 429.9830096634105,239.3862581080757 428.9959146948531,243.10416268010158 429.2426884365268,245.9640859120991 435.905579472892,257.9757315563038 439.60718560405076,266.55544686934445 446.51685038302094,286.57468027062714 447.2571716089733,290.29252212971915 447.750719093252,297.44220412510913 447.750719093252,310.88355681090616 446.7636241246946,336.62213704315946 446.7636241246946,351.20722739957273 447.50394535111263,359.78665679716505 447.2571716089733,403.54133750044275 446.7636241246946,413.55048201675527 446.7636241246946,431.2808786960086 445.5297554144636,487.9030060918303 446.7636241246946,495.3381498348899 449.4781352877617,507.062759442837 461.0765011655167,551.9589810316684 462.3103698757477,562.8254741644487 461.81682239146903,564.8271919818362 460.3361799395643,565.971030091634 431.9571995995939,565.6850706075784 429.9830096634105,566.5429489705712 428.9959146948531,569.1165824825875 426.7749510165304,569.6885007192614 423.8136661108583,569.6885007192614 417.39754881709814,571.6902136260178 412.708847717382,571.4042547270656 410.48788403812796,572.834048930672 409.50078907003626,575.4076766561484 411.4749790066853,582.5566301416839 413.6959426854737,591.7072639532853 413.94271642761305,596.2825696384534 413.6959426854737,596.8544823232805 410.2411102959886,595.1387439181563 407.03305164910853,595.7106568367453 400.37016061274335,598.2842635235284 394.94113828707486,599.4280879580183 390.7459846716374,596.5685259950114 382.6024511824362,595.7106568367453 376.43310763081536,595.4247003924102 356.93798200646415,597.7123511309037 351.26218593865633,597.4263948909938 350.275090970099,596.2825696384534 349.78154348628595,587.7038653424243 346.8202585806139,575.4076766561484 340.4041412868537,552.2449419175973 338.1831776080653,537.374937085202 337.6896301237866,540.8064836750273 338.92349883401766,549.385331739788 340.4041412868537,555.3905097374227 345.58638987038285,567.4008270702325 347.31380606489256,568.5446641290328 401.35725558176637,567.1148677332094 404.5653142281808,567.4008270702325 406.04595668055117,570.5463778545382 406.53950416482985,577.6953437584452 409.99433655431494,591.7072639532853 410.9814315228723,597.7123511309037 410.73465778073296,600.0 411.4749790066853,597.9983073421754 400.37016061274335,591.9932207776001 399.629839386791,590.2774793927092 399.87661312893033,593.423004461336 398.889518160373,586.2740787366638 397.65564945014194,590.8493933040882 397.16210196586326,591.7072639532853 397.16210196586326,592.2791775723454 400.37016061274335,587.4179080793401 399.87661312893033,595.1387439181563 400.37016061274335,595.1387439181563 398.64274441823363,590.2774793927092 398.64274441823363,589.1336512179114 399.1362919025123,591.4213070989354 398.64274441823363,592.2791775723454 399.629839386791,585.1302489255322 400.12338687106967,584.5583338440629 400.37016061274335,584.8442913993495" stroke="green" stroke-width="10" /></svg>