<?xml version="1.0" encoding="utf-8" ?>
<svg baseProfile="full" height="600" version="1.1" width="800" xmlns="http://www.w3.org/2000/svg" xmlns:ev="http://www.w3.org/2001/xml-events" xmlns:xlink="http://www.w3.org/1999/xlink"><defs /><polyline fill="none" points="421.8051303133834,1.9172691988642327 420.60208864090964,1.7429720882792026 417.293724041665,2.2658633674145676 416.391442787135,1.5686749597662129 416.0906823691912,0.34859456040430814 414.28611986059695,0.0 405.56406773487106,0.6971890493878163 398.64657811867073,0.34859456040430814 388.1199634845834,1.0457834671833552 360.2996248085983,3.31164544360945 358.0439216727391,2.788754485780373 356.23935916414484,3.1373484756913967 354.4347966555506,4.531723721884191 353.9836560280528,5.577504408545792 353.68289560987614,8.017656846670434 355.03631749143824,24.05285738344537 355.4874581187032,33.46475265006302 354.88593728258274,40.08790705015417 355.18669770052657,47.40820565371541 355.18669770052657,51.24263523152331 354.73555707372725,52.11409529595403 354.5851768644061,54.205597632797435 355.78821853687987,59.2600510182092 355.4874581187032,70.06607349344995 356.3897393727675,82.96349450718844 355.78821853687987,91.50362498598406 356.3897393727675,106.14374911243794 357.14164041844197,114.68376345105935 357.74316125456244,145.3577478323714 357.14164041844197,155.46609903825447 357.5927810454741,165.57439030328533 358.34468209114857,171.67419224127661 357.74316125456244,180.21387828647858 358.19430188206024,189.97346709860722 358.6454425090924,194.8532405529404 358.7958227179479,222.56311780866235 358.19430188206024,231.10254894493846 358.19430188206024,236.50502410484478 358.6454425090924,237.89920846407767 358.19430188206024,240.16475561534753 357.14164041844197,241.38466437370516 357.29202062729746,242.43029975664103 358.49506229977123,245.2186576438835 358.6454425090924,248.70409859053325 358.34468209114857,262.9943319745944 358.94620292726904,270.4879430724541 359.2469633454457,281.46689520659856 359.2469633454457,304.4701847290271 358.6454425090924,311.6150827030651 358.94620292726904,321.54818380094366 360.7507654358633,321.54818380094366 366.4652133800555,319.97980326385004 365.8636925437022,321.89671261323383 361.5026664810721,324.8592046413105 360.14924459951,326.4275806903606 359.54772376362234,328.17021905299043 359.99886439042166,336.18633258203045 361.6530466901604,353.78679747576825 362.40494773560204,357.96905945125036 364.0591300353408,367.2048516435898 366.3148331709672,373.1296731278999 367.81863526138477,381.3198336372152 368.8712967247702,388.1158944108756 373.9842238330748,412.3375317635364 375.93916655075736,416.86815955047496 377.5933488504961,426.62639390549157 378.9467707318254,441.089388549095 381.95437491312623,457.12051640235586 381.95437491312623,460.08277353283484 382.8566561671905,468.62101529946085 384.2100780487526,479.42444362520473 384.96197909419425,486.9171037286287 385.4131197214592,500.1598643445177 385.8642603487242,503.4705384336412 386.7665416030213,507.1296970556141 388.72148432047106,537.0996531895944 390.2252864111215,543.0238845117856 390.5260468297638,553.6526009021327 392.9321301744785,567.4175614128471 393.98479163763113,577.0006961859181 393.6840312194545,578.2203640228836 394.2855520558078,579.7885071026976 395.03745310078375,586.409539770335 396.69163540098816,598.0834031924023 397.8946770732291,599.8257640158408 399.5488593725022,600.0 401.2030416727066,599.3030559553299 401.8045625088271,598.606111626199 401.9549427179154,596.8637495571747 399.5488593725022,581.3566487411154 397.1427760280203,561.3191748902318 396.3908749828115,548.0768890863983 395.1878333101049,540.9329816887621 392.63136975630186,509.7433769798372 391.4283280838281,501.55383316532243 389.0222447386477,474.19698685139883 388.4207239027601,461.3025249739876 387.5184426482301,457.2947669640416 387.067302021198,456.0750126571511 387.36806243890896,452.7642465693061 385.2627395123709,446.49119846266694 384.2100780487526,434.8162975006271 383.4581770035438,428.3689298792742 382.2551353313029,421.5730295132962 381.20247386791743,418.4364509807201 381.3528540765401,415.9968859112123 381.95437491312623,414.7771020675427 384.0596978396643,414.2543372962391 403.007604181068,413.5573173521552 415.18840111466125,412.68604202062124 415.4891615328379,411.8147662443225 413.68459902424365,409.0266807686421 413.53421881538816,406.93561367096845 415.03802090580575,398.91983271052595 412.6319375608582,392.64658654725645 412.33117714268155,392.47232937975787 414.88764069695026,389.50995481200516 414.88764069695026,386.02480167296017 412.6319375608582,378.53169830556726 411.42889588861726,375.39504060841864 411.8800365156494,374.52374577947194 413.834979233332,373.1296731278999 415.9403021603357,372.78115478687687 422.70741156791337,372.78115478687687 424.06083344947547,371.0385620131856 425.71501574874856,370.34152440546313 428.4218595121056,370.16726495866897 433.68516682926565,370.86430263804505 442.25683874543756,370.34152440546313 444.5125418815296,368.7731887453119 445.8659637628589,366.8563320916146 446.31710439012386,364.59095326793613 446.1667241808027,361.80279058450833 443.00873979064636,351.17287853267044 438.64771372801624,333.7466498450376 437.44467205554247,327.29890009452356 437.5950522646308,326.2533167562797 437.8958126825746,325.9047888343921 436.39201059238985,318.7599507373525 437.44467205554247,253.40943256521132 437.7454324737191,245.5672020590864 437.5950522646308,237.37638946267543 438.3469533100724,222.0402941047796 437.7454324737191,214.72074541362235 437.5950522646308,206.70406078954693 436.69277101010084,199.38444625289412 435.03858871082775,193.28474346583243 432.1813647383824,185.9650713116862 426.76767721259966,174.6369453072548 426.91805742145516,174.811224738718 424.81273449445143,168.36287389777135 422.8577917772345,163.65730518678902 422.10589073156007,158.6031613626983 422.2562709408812,146.40344211593037 421.65475010476075,139.95498381444486 421.95551052270457,113.46376402198803 421.65475010476075,101.61229555791942 421.95551052270457,75.99192770040827 421.8051303133834,58.91146850743098 422.70741156791337,57.16855488345027 424.06083344947547,56.471388935053255 435.94086996489204,56.645680449029896 437.5950522646308,55.94851428660331 438.4973335189279,53.85701408860041 438.3469533100724,52.81126302696066 437.7454324737191,52.81126302696066 437.1439116373658,53.682722289755475 437.44467205554247,53.85701408860041 441.50493769999593,53.159846785420086 443.309500208823,52.46267919713864 440.75303665478714,52.63697112072259 440.4522762366105,51.939803318935446 440.60265644593164,47.93108292261604 440.15151581843384,46.536743183096405 438.9484741461929,45.66528026678134 436.0912501742132,44.096645894576795 434.8882085017394,42.00513115199283 434.5874480835628,39.390734114684165 435.6401095467154,34.33622180466773 435.03858871082775,31.02463664568495 436.39201059238985,25.27292081352789 435.4897293378599,22.484203119121958 434.5874480835628,21.6127279039938 431.88060432020575,21.089842561108526 429.9256616025232,19.695480861875694 427.3691980484873,19.869776136940345 428.12109909392893,18.126822587451898 428.72261993028224,17.6039361745934 427.06843763031065,18.301118022412993 426.31653658510186,17.95252713415539 426.6172970032785,15.860980307334103 427.218817839399,16.035275974543765 427.51957825780846,15.860980307334103 427.8203386757523,16.035275974543765" stroke="green" stroke-width="10" /></svg>