<?xml version="1.0" encoding="utf-8" ?>
<svg baseProfile="full" height="600" version="1.1" width="800" xmlns="http://www.w3.org/2000/svg" xmlns:ev="http://www.w3.org/2001/xml-events" xmlns:xlink="http://www.w3.org/1999/xlink"><defs /><polyline fill="none" points="708.5714285708964,363.32770258001983 703.5714285708964,363.32770258001983 682.8571428563446,356.70553044835106 671.428571427241,358.3610739912838 662.1428571436554,356.70553044835106 652.8571428563446,357.5333022624254 640.7142857145518,355.0499865687452 625.7142857145518,345.94448918802664 624.2857142854482,343.4611699413508 620.0,341.80562335439026 608.5714285708964,342.63339668884873 600.7142857145518,336.8389815655537 593.5714285708964,336.01120763644576 585.7142857126892,337.66675540804863 574.9999999981374,343.4611699413508 569.2857142835855,339.3223028406501 552.1428571417928,334.35565952723846 531.4285714291036,333.5278853457421 511.42857142724097,335.18343362538144 497.8571428563446,332.7001110804267 485.71428571268916,332.7001110804267 436.4285714291036,328.56123847840354 429.2857142854482,326.0779139031656 428.5714285708964,324.42236376320943 428.5714285708964,321.9390379181132 428.5714285708964,323.59458856703714 431.4285714291036,325.2501388769597 432.8571428563446,323.59458856703714 432.8571428563446,320.28348693205044 435.0,316.14460798492655 432.1428571417928,314.48905581468716 422.1428571417928,320.28348693205044 397.8571428582072,327.73346370318905 390.0,328.56123847840354 376.42857142724097,325.2501388769597 365.0,316.14460798492655 355.7142857145518,307.0390668534674 352.8571428563446,302.07240374200046 346.4285714291036,294.62240336090326 322.8571428563446,286.34461712185293 309.2857142854482,285.51683803182095 295.7142857145518,285.51683803182095 279.2857142854482,282.2057208274491 265.7142857145518,274.7557021691464 259.2857142854482,269.78901925496757 252.14285713993013,258.2000806108117 233.5714285708964,235.84993781754747 217.14285714179277,225.088735954836 204.2857142854482,220.1220225756988 194.28571428358555,213.49973333906382 175.71428571268916,193.6328331208788 171.4285714291036,190.32167834835127 165.71428571268916,189.493889444042 165.71428571268916,187.01052221888676 161.42857142724097,191.1494671679102 159.28571428358555,191.1494671679102 130.7142857145518,176.24925545044243 130.00000000186265,175.42146510723978 132.14285714179277,167.14355701580644 127.14285714179277,163.8323914068751 107.14285714365542,142.30978196393698 102.14285714179277,121.61491124331951 97.85714285634458,116.64813439967111 90.7142857145518,110.02576053561643 86.42857142724097,107.54236894333735 79.2857142854482,105.05897658551112 66.42857142910361,106.71457157377154 60.0,105.05897658551112 50.71428571268916,100.09218958579004 37.85714285634458,90.98640550952405 28.571428570896387,81.05281120352447 27.14285714365542,81.05281120352447 26.428571429103613,84.36401066044345 31.428571429103613,88.50300807645544 31.428571429103613,90.98640550952405 26.428571429103613,92.64200337650254 26.428571429103613,94.29760090447962 40.71428571268916,100.09218958579004 42.85714285634458,102.57558346539736 40.0,107.54236894333735 41.42857142724097,110.8535575652495 45.71428571455181,114.99254144076258 56.42857142910361,122.44270708644763 64.2857142854482,134.03184002125636 71.42857142724097,139.82640027115121 72.85714285634458,143.13757569156587 65.71428571268916,143.96536933630705 53.57142857089639,166.31576573941857 54.28571428544819,162.17680809507146 47.142857141792774,143.13757569156587 42.85714285634458,138.9986062021926 32.857142858207226,136.51522349379957 22.142857141792774,135.68742908723652 11.428571429103613,138.9986062021926 6.428571427240968,144.79316289769486 5.714285712689161,148.1043362878263 0.0,156.3822638420388 5.0,171.28251211717725 10.714285714551806,177.0770457102917 14.285714285448194,177.0770457102917 17.142857141792774,173.76588416518643 13.571428570896387,169.62693033088 12.85714285634458,167.14355701580644 14.285714285448194,167.14355701580644 22.142857141792774,169.62693033088 24.285714285448194,173.76588416518643 24.285714285448194,177.0770457102917 22.142857141792774,178.73262597294524 10.714285714551806,182.04378548869863 5.714285712689161,181.2159957359545 5.714285712689161,182.8715751543641 10.714285714551806,198.59956274507567 18.571428570896387,208.53301285207272 19.999999998137355,214.3275197893381 19.999999998137355,216.81087863398716 15.714285712689161,220.94980835122988 12.142857141792774,226.7443064036779 11.428571429103613,231.7110157161951 13.571428570896387,235.84993781754747 30.714285714551806,244.9555589952506 32.142857141792774,248.26669143047184 28.571428570896387,251.5778225120157 12.85714285634458,255.71673445869237 10.714285714551806,258.2000806108117 10.0,263.16677063237876 10.714285714551806,266.477895621676 13.571428570896387,268.9612384736538 33.57142857089639,273.1001415378414 36.42857142724097,274.7557021691464 37.85714285634458,277.23904248466715 37.85714285634458,280.5501617179252 35.0,283.03350025461987 20.71428571268916,286.34461712185293 17.142857141792774,291.31128988042474 19.28571428358555,304.55573567934334 12.85714285634458,324.42236376320943 12.85714285634458,328.56123847840354 15.0,336.01120763644576 15.0,344.28894310910255 16.428571429103613,348.42780767101794 27.14285714365542,360.84438866656274 24.999999998137355,363.32770258001983 15.714285712689161,365.8110157321207 15.0,367.46655741147697 15.0,370.77763975411654 19.999999998137355,375.7442607283592 19.999999998137355,377.3998003760353 13.571428570896387,384.8497246070765 4.2857142854481936,403.8883887208067 2.857142858207226,411.33828858146444 4.2857142854481936,413.82158701168373 5.714285712689161,422.9270080756396 4.2857142854481936,419.61594705702737 6.428571427240968,418.788181588985 15.0,422.9270080756396 12.85714285634458,422.9270080756396 19.999999998137355,421.2714777342044 26.428571429103613,424.58253807760775 32.142857141792774,431.2046547047794 52.142857141792774,446.104397312738 57.85714285634458,453.5542583395727 60.0,459.34858995396644 60.0,465.9706781520508 54.28571428544819,476.73155992198735 38.57142857089639,491.63121877005324 31.428571429103613,500.73655234929174 20.71428571268916,510.66963185044006 17.857142858207226,514.8084113816731 17.857142858207226,516.4639226021245 19.999999998137355,518.1194334812462 44.999999998137355,513.980655644089 54.28571428544819,513.980655644089 63.57142856903374,516.4639226021245 79.2857142854482,513.1528998236172 90.7142857145518,513.1528998236172 130.00000000186265,518.9471887964755 143.5714285708964,518.1194334812462 169.2857142854482,499.90879517327994 196.42857142724097,494.94225034769624 207.85714285820723,489.97570247389376 220.7142857145518,474.2482807831839 247.14285714179277,455.20978208165616 258.5714285708964,441.9655826734379 264.2857142854482,430.376890421845 267.8571428563446,425.4103029514663 284.2857142854482,412.99382095132023 291.42857142724097,399.7495525041595 290.71428571268916,394.7829462508671 284.99999999813735,381.53864801861346 285.7142857145518,375.7442607283592 289.2857142854482,370.77763975411654 306.42857142724097,360.84438866656274 313.5714285708964,351.7388977976516 314.2857142854482,349.2555803284049 313.5714285708964,345.94448918802664 309.2857142854482,338.4945291681215 295.0,324.42236376320943 287.8571428563446,320.28348693205044 280.0,312.0057269213721 277.8571428563446,307.0390668534674 277.8571428563446,303.7279584524222 282.1428571436554,295.450181519147 289.99999999813735,288.0001750472002 307.8571428563446,286.34461712185293 323.5714285708964,287.1723961257376 341.42857142724097,293.79462511930615 346.4285714291036,297.10573758231476 355.0,309.5223972699605 365.71428571268916,322.7668132861145 378.5714285708964,329.38901316933334 389.2857142854482,329.38901316933334 390.7142857145518,325.2501388769597 392.8571428563446,323.59458856703714 415.71428571268916,321.9390379181132 420.0,322.7668132861145 437.8571428563446,331.0445622941479 456.4285714291036,334.35565952723846 458.57142857275903,334.35565952723846 459.2857142854482,332.7001110804267 462.8571428563446,332.7001110804267 465.0,335.18343362538144 462.1428571417928,332.7001110804267 466.42857142724097,335.18343362538144 481.4285714291036,336.8389815655537 489.2857142854482,339.3223028406501 494.99999999813735,336.8389815655537 500.0,336.01120763644576 509.2857142854482,336.8389815655537 518.5714285708964,336.01120763644576 522.1428571417928,336.8389815655537 550.7142857145518,337.66675540804863 572.8571428563446,345.11671618930995 577.1428571417928,345.11671618930995 585.0,339.3223028406501 596.4285714291036,339.3223028406501 603.5714285708964,342.63339668884873 608.5714285708964,346.77226209966466 625.7142857145518,347.60003492841497 635.0,352.56667011696845 645.7142857145518,355.8777585523203 661.4285714291036,355.8777585523203 676.4285714291036,355.0499865687452 690.7142857145518,355.8777585523203 722.8571428563446,365.8110157321207 733.5714285708964,362.49993136012927 746.428571427241,363.32770258001983 747.1428571417928,364.15547371516004 745.7142857126892,366.6387866148725 746.428571427241,368.29432812472805 747.8571428563446,368.29432812472805 748.5714285708964,366.6387866148725 747.8571428563446,364.9832447646186 752.1428571417928,361.6721600550227 752.8571428563446,362.49993136012927 750.7142857126892,377.3998003760353 750.7142857126892,397.26624975865707 750.7142857126892,373.2609506221488 749.2857142854482,361.6721600550227 747.1428571417928,360.84438866656274 745.7142857126892,364.15547371516004 725.0,364.15547371516004 725.0,369.12209875229746 729.2857142835855,371.6054101274349 767.8571428563446,379.05533968657255 785.0,379.05533968657255 788.571428572759,380.71087865764275 794.2857142873108,381.53864801861346 799.2857142854482,380.71087865764275 800.0,378.2275700750761 799.2857142854482,374.91649078018963 787.8571428563446,367.46655741147697 775.7142857126892,364.9832447646186 771.428571427241,362.49993136012927 771.428571427241,360.01661719288677 767.8571428563446,355.0499865687452 767.1428571417928,343.4611699413508 765.0,336.8389815655537 764.2857142854482,331.0445622941479 754.2857142854482,307.0390668534674" stroke="green" stroke-width="10" /></svg>