<?xml version="1.0" encoding="utf-8" ?>
<svg baseProfile="full" height="600" version="1.1" width="800" xmlns="http://www.w3.org/2000/svg" xmlns:ev="http://www.w3.org/2001/xml-events" xmlns:xlink="http://www.w3.org/1999/xlink"><defs /><polyline fill="none" points="1.061183883342892,83.78893434762722 3.97943956265226,84.09642414661357 10.213894876418635,84.09642414661357 24.40722931502387,83.32769953017123 26.13165312563069,83.63518942403607 27.856076936004683,84.55765872838674 29.845796716865152,86.55634027911583 30.906980600440875,89.1699967586901 31.835516498191282,97.6259130591643 36.74349195859395,127.75933711888501 37.274083899799734,133.75520149146905 38.600563754094765,140.2122594580287 43.906483170576394,173.41954809665913 46.161498922389,183.41233861492947 51.20212236791849,213.85150661785156 52.52860222198069,225.9962552082725 55.57950588641688,239.98565416631754 59.82424141955562,266.27307378244586 60.88542530266568,271.3460316878627 65.39545680652373,289.94673093239544 65.92604874819517,292.40631030435907 65.79340076260269,292.71375744295074 70.7013762225397,306.8562578759738 76.8031835516449,322.07466956955614 85.69059857400134,346.3623207503115 87.54767036973499,353.89448732387973 90.20063007832505,360.81174992979504 90.86387000489049,364.0397949256585 92.19034985918552,368.03641246439656 93.11888575693592,372.34045024530496 96.56773337791674,380.6410597564536 103.59807660407387,399.8552578831441 104.39396451669745,402.00723278918304 104.2613165313378,401.69980799098266 105.45514840004034,403.3906436029356 108.63870004983619,405.38890142092714 114.87315536406823,408.3094273034367 116.86287514516152,408.7705624505761 125.61764218192548,408.3094273034367 131.18885756935924,407.38715658459114 150.42281545349397,402.77579450939083 159.44287846121006,400.4701081702369 163.15702205291018,398.62555655441247 170.05471729370765,397.3958542206674 182.6562759077642,394.01416761864675 185.8398275577929,393.55302794720046 192.33957884274423,392.6307481810218 216.34886420168914,390.7861869515036 221.38948764745146,390.7861869515036 233.85839827591553,389.5564782083966 236.90930194035172,388.9416234602686 244.204941137461,388.32676846079994 248.1843806996476,388.32676846079994 249.11291659763083,388.63419599167537 249.9088045102544,389.24905086588115 250.5720444372855,390.01761910511414 250.83734040800482,390.93990047386615 250.70469242241234,392.4770348314778 249.77615652466193,394.475307148241 248.5823246561922,395.24387271737214 245.9293649480678,396.01243789331056 238.63372575049289,396.93471558601595 237.57254186715,396.7810026766383 236.5113579838071,396.31986385351047 235.71547007164918,395.5512988345581 235.18487812951207,394.62902029330144 234.9195821590256,393.39931469230214 235.18487812951207,392.16960808547447 235.71547007164918,391.09361398016335 236.6440059693996,390.17133270553313 237.83783783810213,389.71019185648765 240.2255015752744,389.40276454546256 245.5314209915232,389.71019185648765 248.98026861203834,389.71019185648765 248.8476206266787,389.71019185648765 255.48001989722252,388.17305467132246 264.5000829049386,387.86562704574317 268.74481843807735,388.0193408661871 273.9180898691993,387.4044854893 277.89752943161875,386.63591591536533 293.4173437242862,385.25248969125096 310.92687779827975,384.48391901736613 316.63074117084034,383.2542051218916 322.46725252852775,381.56334687466733 329.4975957556162,380.79477431526175 347.0071298291441,377.72048015141627 351.64980931859463,377.72048015141627 357.22102470579557,376.7981906774221 369.1593433925882,372.9553117802134 382.02619797736406,369.88100159267196 391.1789089704398,365.73067287297454 399.8010280216113,362.5026315059513 407.0966672191862,360.1968834310537 414.2596584316343,357.42998107522726 415.85143425664864,356.3539621173986 417.177914110478,354.816790842975 417.70850605214946,352.81846583710285 418.1064500082284,350.51270291628316 418.7696899352595,349.8978322069743 419.5655778478831,350.20526759303175 419.69822583324276,351.2812909493805 419.5655778478831,352.51103098562453 419.9635218041949,353.89448732387973 420.62676173099317,354.35563915397506 421.2900016582571,354.5093563994742 431.50389653467573,351.43500850867713 449.54402255034074,347.28462888789363 535.3672691097017,328.5309189159889 537.0916929200757,328.5309189159889 537.8875808324665,328.8383586698328 539.081412701169,330.2218367839814 546.377051898744,345.59373020316707 550.6217874316499,353.7407700155745 560.1724423812702,369.72728591860505 565.0804178412072,376.3370457277633 569.4578013599385,380.48734518152196 573.3045929365326,384.02277642465197 577.9472724255174,387.5581993572996 583.7837837836705,391.24732747109374 588.8244072294328,394.7827334229369 599.4362460621633,400.316395622096 622.9149394794367,413.9967509066919 627.6902669542469,417.2246817641426 634.5879621952772,420.606316185731 665.4949427957181,438.590335163055 669.8723263139836,441.5107965846546 672.6579340077005,443.66271189937834 700.9119548995513,459.8019786371733 713.2482175426558,466.25763685058337 724.9212402589619,473.17438276670873 729.4312717625871,476.40218664426357 735.7983750624117,479.476279136783 760.0729563920759,494.0781326946453 770.0215552977752,500.6873461345094 777.8477864370216,504.9910043940181 780.7660421158653,507.2965305399848 785.6740175760351,509.75575453502825 790.5819930359721,513.1371809648699 796.8164483502042,516.6723004699452 798.1429282044992,516.0574976746575 799.8673520148732,513.2908819857985 800.0,511.9075722331763 798.9388161168899,510.83166376914596 791.7758249046747,507.1428289070609 784.6128336926922,502.5317726104986 776.653954568319,497.9207021816401 765.5115237936843,490.5429600989446 757.0220527276397,486.08555672480725 742.1654783620033,477.47811973118223 736.3289670038503,474.5577281333972 732.2168794565368,472.0984466015361 724.9212402589619,468.10210553742945 704.6260984914843,455.9593117858749 696.6672193666454,450.88697651209077 688.5756922566798,446.27574778551934 684.330956723541,444.58496037713485 677.0353175261989,439.97371233277954 673.0558779640123,437.0532479266403 664.3011109270155,432.59568606020184 655.9442878460977,427.3695622221567 649.3118885757867,423.9879430052242 641.3530094511807,418.7617892616545 619.8640358150005,406.003749446827 618.272259990219,404.92776523705106 617.7416680485476,403.8517802580609 612.8336925883777,401.85352039767895 609.7827889237087,400.16268305835547 606.3339413034264,398.93298198090633 592.1406068645883,390.63247341365786 585.640855579637,386.17477398191113 579.5390482509974,383.1004908144823 571.4475211407989,376.183330713131 566.5395456806291,370.03471725137206 562.8254020893946,364.65465985343326 560.4377383522224,360.96546651551034 554.2032830377575,349.4366790096974 548.101475709118,337.2929272699985 543.8567401759792,329.145798360405 543.4587962196674,327.9160392198246 543.5914442050271,327.4548792830319 542.5302603216842,324.53419639816275 541.0711324822623,322.53583115624497 539.8773006135598,322.07466956955614 531.3878295475151,324.07303542422596 518.3883269776125,326.2251187595539 498.8890731225256,330.2218367839814 438.40159177570604,344.6714210284408 427.1265130159445,346.97719290474197 419.5655778478831,349.2829612460919 419.83087381883524,349.2829612460919 412.66788260661997,352.51103098562453 400.46426794910803,357.12254716583993 394.229812634876,359.8894500869792 371.01641518832184,366.6529691335745 367.1696236114949,367.5752648288617 361.59840822429396,369.72728591860505 354.7007129830308,371.11072642175714 348.7315536397509,371.5718729731161 341.03797048609704,373.57017306319904 333.3443873319775,374.7998948759632 320.0795887915883,376.49076072650496 319.2837008787319,376.183330713131 310.92687779827975,376.49076072650496 282.5402089206036,379.2576280189678 275.2445697230287,379.87248672614805 267.5509865693748,380.17991598544177 256.2759078096133,381.2559178980882 255.2147239265032,380.6410597564536 252.82706018909812,382.02449022140354 247.52114077284932,381.8707757879747 235.848118056776,383.4079194140504 233.99104626080953,382.7930621521082 233.32780633401126,382.02449022140354 232.92986237769946,381.10220338602085 232.7972143923398,380.0262013634783 233.19515834841877,379.10391330276616 233.85839827591553,378.1816246769158 234.7869341734331,377.41305038984865 235.848118056776,377.1056205650093 238.23578179394826,376.9519056288991 247.25584480189718,378.0279098506435 248.31702868524007,378.48905428143917 249.11291659763083,379.10391330276616 249.64350853930227,380.0262013634783 249.77615652466193,381.10220338602085 249.5108605537098,382.17820463882526 248.8476206266787,383.1004908144823 247.91908472869545,383.86906219576485 246.72525286022574,384.48391901736613 228.95042281551287,384.9450614687521 220.19565577851608,385.8673459478305 210.37970485840924,387.2507716055261 203.34936163178645,387.4044854893 185.97247554315254,389.0953371708165 170.85060520656407,391.401040946017 158.6469905488193,394.62902029330144 152.6778312055394,396.93471558601595 137.29066489776596,400.77753321960336 129.9950257006567,401.5460955685703 121.37290664901957,402.77579450939083 114.07726745144464,403.23693135299254 113.41402752441354,402.9295068065403 112.61813961202279,401.5460955685703 110.62841983092949,394.01416761864675 101.8736527939327,369.88100159267196 100.67982092546299,366.96040109486785 98.55745315854438,362.8100643156213 97.09832531912252,360.81174992979504 92.45564583013766,347.592064808181 88.87415022379719,339.1375541029847 82.37439893884584,321.92094900942175 81.57851102645509,319.76885951467557 78.79290333297104,309.4695314417477 75.47670369781554,300.7073609859217 72.02785607730038,293.32865153136663 69.50754435406998,284.25893822760554 65.2628088213969,264.2746311207302 57.701873652869835,217.69479209725978 55.71215387200937,207.39476489805384 51.46741833887063,181.72125565703027 51.60006632423028,181.1063159284531 50.008290499448776,179.41523037670413 44.967667053919286,176.49425994517514 43.906483170576394,175.26437595969765 42.44735533068888,164.50284817774082 37.937323827063665,136.52251544431783 37.14143591444008,135.29259876074502 34.75377217703499,134.06268107087817 31.968164483550936,133.60146167792846 18.04012601566501,133.75520149146905 16.71364616136998,133.44772184896283 15.652462278259918,132.52528254350182 15.254518321948126,131.29536259023007 13.795390482526273,130.37292196496855 13.795390482526273,126.52941326645669 13.264798540854827,125.29948840744328 9.815950920339674,123.14711748348782 8.887415022589266,121.76344883313868 8.35682308068499,120.2260377286002 9.152710993308574,114.69134473393206 8.754767036996782,112.53895862202626 9.948598905466497,107.15797986008693 9.68330293474719,105.62055381870596 8.622119051637128,104.08312620507786 7.560935168294236,103.31441180879483 5.836511357920244,102.69944000907708 4.510031503858045,101.62323875311995 2.5203117227647454,101.77698183705797 0.7958879126235843,99.31709061126458 0.39794395631179214,99.31709061126458 0.0,99.93206379539333 1.4591278394218534,98.08714348968351 3.448847620515153,98.24088693439262" stroke="green" stroke-width="10" /></svg>