<?xml version="1.0" encoding="utf-8" ?>
<svg baseProfile="full" height="600" version="1.1" width="800" xmlns="http://www.w3.org/2000/svg" xmlns:ev="http://www.w3.org/2001/xml-events" xmlns:xlink="http://www.w3.org/1999/xlink"><defs /><polyline fill="none" points="129.23617208003998,253.19751099450514 110.2721685692668,249.12769347801805 106.76031606644392,246.6858019712381 97.62949956208467,245.87183796986938 89.20105355605483,248.31372972670943 77.26075504720211,249.12769347801805 56.89201053418219,245.87183796986938 43.54697102680802,245.05787388281897 39.33274802565575,243.42994546238333 31.60667251981795,238.5461582057178 21.07111501134932,235.29029836785048 12.642669009044766,236.10426345141605 3.511852502822876,242.61598112853244 0.0,254.01147424941882 0.0,259.70921469153836 1.4047410003840923,264.5929889716208 7.023705003783107,273.5465673706494 7.726075503975153,276.80241156648844 10.535557504743338,280.8722149361856 18.964003512635827,284.9420162276365 25.285338016226888,285.75597623735666 38.630377523601055,282.500135703478 42.84460052661598,282.500135703478 60.40386303886771,291.4536939659156 77.26075504720211,291.4536939659156 115.89113257266581,299.5932836532593 158.0333625972271,301.2212005951442 176.99736610800028,297.1514076218009 193.15188761986792,297.9653663816862 224.75856013968587,304.47703347261995 233.1870061457157,308.5468226997182 249.34152765385807,313.4305670275353 284.46005267836154,315.87243806757033 319.5785776991397,315.0584811377339 344.1615452133119,318.3143083578907 351.8876207191497,323.19804669590667 396.1369622461498,328.89573763590306 405.2677787542343,328.89573763590306 417.9104477595538,326.4538705898449 440.3863037750125,330.52364858519286 471.2906057946384,330.52364858519286 486.74275680445135,331.3376039341092 490.9569798056036,332.9655143828131 495.1712028067559,329.7096931533888 497.98068480938673,328.89573763590306 502.19490781240165,329.7096931533888 516.9446883220226,341.9190159086138 521.8612818270922,343.54692419292405 540.8252853360027,345.17483214708045 557.6821773480624,355.7562257335521 562.5987708512694,356.5701785031706 571.7295873574913,354.94227287871763 587.1817383654416,350.05855401139706 608.9552238807082,347.61669345526025 625.1097453888506,351.6864606337622 660.9306409135461,352.50041381968185 724.8463564515114,360.63994110841304 754.3459174707532,361.4538933788426 759.9648814741522,363.8957496951334 774.0122914835811,364.7097016321495 776.1194029822946,363.08179767197 679.1922739241272,357.38413119129837 676.3827919214964,355.7562257335521 678.4899034220725,347.61669345526025 675.6804214213043,333.779469484929 675.6804214213043,323.19804669590667 687.6207199301571,322.3840905148536 700.2633889373392,329.7096931533888 723.4416154511273,328.89573763590306 744.5127304643393,331.3376039341092 746.6198419649154,328.89573763590306 754.3459174707532,333.779469484929 792.9762949943542,337.84924373589456 795.7857769969851,337.84924373589456 799.2976294979453,333.779469484929 799.2976294979453,332.1515592010692 798.5952589977533,330.52364858519286 796.4881474953145,329.7096931533888 785.2502194903791,330.52364858519286 779.6312554869801,328.89573763590306 768.3933274783194,331.3376039341092 717.8226514458656,328.89573763590306 700.9657594375312,331.3376039341092 684.1088674254715,324.825958808884 655.3116769082844,320.756177901756 644.0737489014864,317.5003516776487 632.8358208946884,317.5003516776487 615.2765583842993,314.24452412314713 611.0623353812844,315.0584811377339 601.9315188750625,311.80265258438885 574.5390693582594,307.73286501923576 561.1940298490226,307.73286501923576 547.8489903416485,306.1049494110048 540.8252853360027,302.84911719942465 538.7181738354266,299.5932836532593 536.6110623348504,291.4536939659156 534.5039508342743,288.197855763603 530.2897278293967,286.5699361618608 525.3731343280524,287.3838960053399 514.1352063212544,291.4536939659156 509.9209833201021,294.7095308396965 505.0043898150325,302.84911719942465 501.4925373122096,307.73286501923576 493.76646180823445,309.36078029405326 482.5285337995738,306.1049494110048 475.5048287957907,301.2212005951442 470.5882352925837,301.2212005951442 471.99297629483044,300.4072421663441 470.5882352925837,299.5932836532593 448.11237927898765,298.77932506008074 432.6602282691747,293.0816125711426 410.18437225557864,289.011815440841 395.43459174595773,284.9420162276365 361.0184372253716,280.0582544282079 342.0544337127358,281.68617536034435 290.7813871819526,275.1744896355085 278.8410886730999,275.1744896355085 259.17471466213465,272.73260611342266 251.44863915629685,269.4767602547072 220.5443371385336,271.10468334984034 202.98507462628186,269.4767602547072 194.556628620252,267.84883682755753 179.10447761043906,260.5231772810221 166.46180860325694,263.7790268007666 165.7594381030649,266.2209130660631 164.35469710081816,266.2209130660631 153.11676909588277,262.965064545162 149.6049165930599,259.70921469153836 141.1764705888927,257.2673264294863 120.80772607401013,252.3835476594977 104.65320456400514,253.19751099450514 89.90342405624688,250.75562073430046 66.02282704040408,250.75562073430046 48.46356453001499,242.61598112853244 40.73748902603984,240.98805220844224 35.118525022640824,242.61598112853244 33.01141352020204,241.80201671086252 29.499561017379165,237.7321933703497 25.285338016226888,236.91822845116258 14.047410009428859,236.91822845116258 7.726075503975153,239.36012295540422 2.1071115024387836,244.24390971567482 0.0,250.75562073430046 0.7023705001920462,264.5929889716208 4.916593501344323,270.2907218448818 7.726075503975153,279.2442938378081 16.154521510004997,282.500135703478 28.094820016995072,283.31409596046433 37.92800702340901,280.8722149361856 45.65408252924681,280.8722149361856 56.89201053418219,288.197855763603 84.28446005284786,290.639734542463 96.22475855983794,293.8955717468634 129.93854258023202,299.5932836532593 154.52151009626687,300.4072421663441 169.97366110607982,297.1514076218009 204.38981562666595,299.5932836532593 207.19929762929678,301.2212005951442 219.84196663834155,302.84911719942465 252.85338015668094,313.4305670275353 270.4126426689327,313.4305670275353 296.4003511853516,316.68639491312206 321.68568919971585,317.5003516776487 332.9236172083765,320.756177901756 348.37576821632683,319.9422214701772 378.57769973389804,327.2678263564594 401.05355574935675,330.52364858519286 416.5057067591697,326.4538705898449 441.08867427520454,329.7096931533888 466.3740122895688,329.7096931533888 470.5882352925837,331.3376039341092 474.8024582955986,336.22133428417146 483.9332748018205,335.40737943490967 503.59964881651103,340.29110728763044 513.4328358210623,345.17483214708045 538.7181738354266,347.61669345526025 545.0395083390176,350.05855401139706 555.5750658456236,359.01203631656244 561.8964003492147,361.4538933788426 566.8129938524216,360.63994110841304 583.6698858644813,354.12831994332373 600.5267778746784,350.05855401139706 618.0860403850675,350.87250736309215 629.3239683918655,353.31436692131683 672.1685689184815,354.94227287871763 674.2756804190576,351.6864606337622 674.2756804190576,341.105061639566 672.1685689184815,331.3376039341092 672.1685689184815,321.57013424905017 675.6804214213043,319.9422214701772 690.4302019290626,323.19804669590667 696.7515364326537,328.89573763590306 729.0605794545263,328.08178203739226 769.0956979785115,334.5934245022945 784.5478489883244,334.5934245022945 790.1668129917234,337.0352890524082 800.0,337.0352890524082 771.9051799811423,336.22133428417146 712.9060579445213,328.89573763590306 696.0491659343243,330.52364858519286 683.4064969252795,319.12826495664194 646.1808604020625,319.12826495664194 633.5381913948804,316.68639491312206 613.1694468837231,315.0584811377339 597.0149253718555,310.98869523918256 570.3248463552445,306.1049494110048 547.1466198395938,303.663075376302 540.8252853360027,300.4072421663441 538.7181738354266,297.1514076218009 535.9086918346584,289.011815440841 530.2897278293967,284.9420162276365 523.2660228256136,285.75597623735666 509.9209833201021,291.4536939659156 505.0043898150325,297.9653663816862 503.59964881651103,304.47703347261995 500.0877963118255,307.73286501923576 495.8735733088106,308.5468226997182 488.84986830316484,306.1049494110048 488.84986830316484,302.84911719942465 486.74275680445135,300.4072421663441 469.1834942921996,304.47703347261995 465.6716417912394,301.2212005951442 441.08867427520454,296.33744877716526 417.20807725936174,288.197855763603 391.9227392449975,284.9420162276365 380.6848112381995,285.75597623735666 360.3160667233169,278.4303331640549 337.84021070972085,279.2442938378081 321.68568919971585,275.1744896355085 304.8287971895188,275.9884506436065 285.8647936787456,271.10468334984034 260.57945566251874,267.84883682755753 240.21071114949882,267.84883682755753 221.94907813891768,271.9186447747052 199.47322212345898,270.2907218448818 181.21158911287785,267.0348749877885 161.54521510191262,267.0348749877885 155.92625109665096,266.2209130660631 147.49780509248376,260.5231772810221 129.23617208003998,254.01147424941882" stroke="green" stroke-width="10" /></svg>