<?xml version="1.0" encoding="utf-8" ?>
<svg baseProfile="full" height="600" version="1.1" width="800" xmlns="http://www.w3.org/2000/svg" xmlns:ev="http://www.w3.org/2001/xml-events" xmlns:xlink="http://www.w3.org/1999/xlink"><defs /><polyline fill="none" points="389.3004200416617,1.1641532182693481e-10 390.1920517045073,28.590254360809922 390.1920517045073,97.82588917633984 391.08368336828426,126.0708638963988 390.7864728127606,139.15991822979413 392.5697361398488,151.56002806022298 397.3251050100662,162.92675531154964 400.29721055412665,168.09343684022315 402.3776844353415,176.36011080583557 410.10515884961933,192.20451254490763 415.1577382753603,203.57110267609823 419.6158965905197,220.44869606790598 421.10194936348125,237.67064299504273 421.69637047173455,257.9924271503696 422.5880021350458,266.94775075209327 421.99358102632686,277.9696548191132 421.10194936348125,286.5804922860116 421.69637047173455,296.5690361796878 423.1824232437648,306.901981463423 422.5880021350458,311.0351507042069 418.42705437354743,309.3129974694457 415.45494882948697,310.0018588686362 414.2661066115834,311.0351507042069 413.3744749482721,314.47945453214925 413.6716855028644,353.74426934006624 412.1856327308342,449.8378071835032 411.5912116221152,455.0040488044033 410.40236940421164,456.3817118991865 410.6995799583383,456.03729617781937 410.6995799583383,461.5479434885783 418.1298438189551,494.956049899105 430.01826599566266,540.7625028260518 432.39595043100417,556.9495967144612 432.0987398759462,558.327218135586 431.2071082131006,559.3604338325094 428.23500266857445,559.7048389946576 418.1298438189551,558.327218135586 394.05578891187906,559.0160286356695 392.2725255852565,560.0492441211827 391.6781044770032,562.8044838682981 390.1920517045073,563.8376981923357 384.842261725571,564.5265075658681 378.00641897367314,566.5929348422214 369.09010234149173,565.9041258909274 368.1984706777148,566.9373392650159 367.60404956899583,570.0369774868013 370.8733656676486,577.9582622140879 373.54826065758243,589.3235512602841 370.8733656676486,600.0000000001164 370.2789445593953,598.9667967614951 374.737102875486,597.9335932063404" stroke="green" stroke-width="10" /></svg>