<?xml version="1.0" encoding="utf-8" ?>
<svg baseProfile="full" height="600" version="1.1" width="800" xmlns="http://www.w3.org/2000/svg" xmlns:ev="http://www.w3.org/2001/xml-events" xmlns:xlink="http://www.w3.org/1999/xlink"><defs /><polyline fill="none" points="422.9178337403573,1.1641532182693481e-10 425.26170310005546,9.96075391874183 425.78256295761093,10.56443489342928 425.0012731705792,12.375477079418488 422.1365439533256,12.97915756108705 418.75095487805083,12.97915756108705 421.3552541672252,27.16561333159916 421.09482423821464,49.50159699784126 420.5739643801935,59.16034839802887 421.3552541672252,82.40158943459392 421.09482423821464,95.6822164398618 421.8761140247807,98.39870096638333 421.61568409530446,129.789007487474 422.1365439533256,138.5420142133953 420.5739643801935,158.76437878189608 422.39697388233617,174.76107650261838 422.1365439533256,190.45586549316067 423.1782636689022,201.6232606995618 425.0012731705792,209.7724143245723 427.8660023887642,212.79061366221868 438.5436294716783,219.1288222282892 431.51202139258385,221.241555392975 429.9494418189861,222.147012000205 430.2098717484623,223.95792438276112 439.8457791162655,241.46335347695276 442.71050833305344,251.4232926677214 447.1378171239048,263.4959011846222 448.439966768492,269.8340008944506 448.96082662651315,274.3612066414207 449.22125655505806,299.7134305415675 448.1795368399471,312.0876512443647 448.1795368399471,323.8582032970153 447.1378171239048,338.64677910413593 447.1378171239048,343.4756857743487 448.96082662651315,349.2100021888036 448.439966768492,420.737118484918 447.1378171239048,462.98860943701584 448.439966768492,485.92487993102986 451.30469598574564,499.8072728951229 458.07587413629517,525.7611368596554 465.3679121444002,555.3361921586329 465.8887720024213,560.7683129766956 465.3679121444002,561.6736654746346 463.5449026422575,562.2772336525377 451.5651259147562,561.0700971730985 440.62706890236586,561.6736654746346 431.7724513215944,561.6736654746346 430.4703016770072,561.9754495787201 429.9494418189861,563.182585688075 429.9494418189861,564.993288927013 428.9077221043408,565.596856426564 413.54235630109906,565.8986401297152 411.4589168699458,566.8039910555817 409.37547743925825,569.5200421666959 408.8546175812371,571.9343077237718 412.5006365859881,584.6091695197392 412.2402066565119,577.3663980117999 405.9898883639835,562.2772336525377 404.68773871986195,561.9754495787201 383.85334441112354,563.4843696379103 342.44498572172597,563.182585688075 340.88240614905953,561.9754495787201 338.2781068603508,555.3361921586329 335.93423749972135,546.2826352576958 334.11122799804434,531.4950992977247 334.89251778507605,542.6612047262024 336.97595721576363,551.4129875760991 340.1011163620278,555.9397616318893 341.14283607760444,561.9754495787201 342.44498572172597,563.7861535575939 344.26799522386864,564.3897213039454 356.5082018808462,563.182585688075 402.86472921818495,562.8808017064584 404.9481686488725,563.7861535575939 409.6359073682688,574.9521368955029 413.80278622964397,590.6447988759028 413.80278622964397,594.5679513423238 412.2402066565119,598.4910985967144 409.11504751071334,600.0000000001164" stroke="green" stroke-width="10" /></svg>