<?xml version="1.0" encoding="utf-8" ?>
<svg baseProfile="full" height="600" version="1.1" width="800" xmlns="http://www.w3.org/2000/svg" xmlns:ev="http://www.w3.org/2001/xml-events" xmlns:xlink="http://www.w3.org/1999/xlink"><defs /><polyline fill="none" points="787.2267865447793,128.7248466697638 787.2267865447793,126.20949803499389 778.2772696739412,126.7365257001511 779.3107011833054,172.84685653052293 779.8067483078048,176.36763619615522 781.0882033793314,177.20590927355806 780.1167777605588,177.44541531639697 782.2663152999885,188.7977210306708 784.3331783186295,208.86648611651617 787.660827778629,222.51609661980183 774.0195318555634,230.44208476685162 746.4889164471242,241.83971299164114 685.1650906836148,271.67205926137103 684.7930553402985,273.228217212687 686.8599183589395,280.2427703415451 687.2526223324821,300.3276519451465 679.0471761484223,298.2689707864629 639.4460807110299,295.5399935133901 623.1592001240642,296.88054771747557 621.2163488864899,297.33537686866475 620.637627241289,298.4844150094141 619.4388466904638,297.8859583463345 616.9172738076886,298.91530286207853 609.8899395442859,302.8411335327255 587.5264816824347,311.76976005105826 578.7423138531449,314.115562701365 521.3661964553467,333.7427889137034 492.49212008473114,340.87520374964515 490.7972924094647,320.07571094710147 489.78452953032684,320.02783887319674 489.4331628171785,318.71135301492177 485.1134191081801,320.2432631290867 463.9900790575484,325.34157949515793 457.00408205442363,326.2032558326755 449.4600320363825,325.36551499168854 423.2728775900614,318.5677359292895 388.7976024388918,328.8361361613788 378.7939854285796,331.08602868710295 370.588539244578,331.9716187689337 369.88580581825227,331.5407915787073 362.56911073217634,331.20570321757987 362.46576758127776,330.32011024731037 362.56911073217634,331.18176831638266 361.4323360718845,331.46898697016877 361.7216968945286,333.1683568169101 358.6007337363844,335.27460096913273 356.9679119516222,337.71590578131145 352.813517284143,350.7836353612656 351.3873818012653,352.79399076793925 348.96915206944686,354.7564639736811 312.32367074870854,368.58904176547367 305.89572676070384,369.4505594599468 295.29271947505185,369.2112493060995 286.1778535627236,371.3650319151493 279.9359272464353,375.26572127008694 267.9274531080737,386.15380595767056 265.8192528289801,387.5417013785045 262.61561515013454,388.69029828661587 260.15604815795086,389.0253046606522 256.7663928073016,388.61851114430465 224.9987082105945,388.69029828661587 223.59324135794304,388.5945820920315 223.69658450889983,387.5177722165972 222.6424843693385,386.4648866784846 223.69658450889983,387.4699138853757 223.5312354673515,388.54672398010734 187.03043455799343,389.5756712384027 178.68030796261155,388.5945820920315 165.88642587713548,385.69914877877454 156.83356585542788,384.40696041460615 156.709554074303,383.7608635679353 155.51077352350694,386.01023010144127 155.34542448201682,389.5756712384027 156.60621092340443,398.28564894921146 157.66031106290757,400.0802471075149 155.7174598253332,407.56955550778366 153.0925437916885,411.13466960201913 154.66335968583007,412.49849089643976 154.2913243424846,414.36475984546996 143.81232883789926,425.72953939232684 136.6196455330064,427.4521527658362 130.68774866944295,427.14112628487055 129.50963674884406,428.1938296369044 129.86100346199237,430.0599739956233 128.68289154139347,430.5384701633302 127.54611688110163,432.66776630142704 128.1248385263316,433.00271000614157 128.57954839040758,431.6868569927756 128.31085619798978,433.6486715178762 127.42210510000587,433.4333512111625 127.71146592256264,433.9836138253886 128.72422880175873,434.19893362816947 128.76556606209488,433.1223326422187 128.97225236395025,434.4381776223163 127.36009920944343,434.58172390196705 126.69870304348296,437.3808588394022 127.46344236037112,438.983767261132 127.25675605854485,440.1321128454001 129.03425825454178,440.73020728286065 127.87681496414007,442.1417041240056 128.35219345835503,440.99336835349095 126.07864413785865,444.19912502255465 125.47925386246061,447.285222620485 124.05311837955378,447.9311448994704 125.06588125874987,449.4143671221682 124.83852632666822,450.49089352195733 122.3169534439221,450.658352741244 120.76680617991951,451.06503892029286 118.53459411978838,452.5243188325112 118.14189014621661,453.959667290168 117.3358135689632,454.5338042206131 112.18932465254329,455.2514734126162 110.47382834705058,456.01698480367486 109.89510670176242,455.8016849767737 109.70908903010422,454.1271240396891 109.13036738490337,453.45729632648 109.39905957732117,451.97409960110963 107.8282436831214,452.0937125870114 105.61670025318745,450.82581184130686 105.43068258152925,451.47172439610586 107.33219655865105,454.222813557295 107.24952203792054,456.6389609743783 105.53402573242784,457.5958441791154 104.10789024957921,457.3327016858966 94.04226734873373,459.9880351595348 92.90549268847099,459.6292080635467 93.64956337519106,460.46647043607663 91.23133364334353,466.5664349107101 90.7146178887051,466.97309358461644 89.61918048883672,466.7578037859639 89.2678137756593,465.80095785263984 89.82586679066299,465.08332084841095 90.9006355603924,465.4182183895755 90.69394925850793,466.4946715423721 87.46964294943609,466.25546015630243 86.20885650804848,466.94917250559956 85.69214075338095,468.76716757705435 84.61737198368064,468.8628511389252 83.31524828192778,470.01105084634037 81.86844416882377,470.1067339022993 81.59975197643507,471.3506100883387 82.42649718391476,473.1446506956272 81.93045005947351,473.7905019650061 79.69823799928417,473.67090001185716 76.88730429389398,472.6184002022346 72.56756058495375,468.5997212500224 72.69157236604951,467.6907248235657 71.36878003412858,466.9970146611595 71.96817030949751,463.9111756996863 73.95235880740802,461.87784883189306 73.82834702625405,461.0884348406835 75.72986100349226,458.64841120802157 74.65509223376284,455.6103071874386 70.8934015397972,455.8016849767737 67.46240892886999,457.14132514223456 64.69281248387415,459.96411337022437 64.4654575518216,461.23196485430526 62.91531028778991,459.67705170800036 60.724435488082236,458.8637084290385 54.957887666038005,453.79221042155405 55.16457396786427,451.3281884261087 56.8594016431889,450.84973456017906 57.376117397798225,449.6775184749422 60.662429597461596,449.3904442572675 61.8405415181187,448.21822089843045 64.30010851030238,447.3091456994007 64.75481837440748,446.01729595064535 66.51165194026544,445.84983342660416 67.19371673645219,445.10821224372194 67.21438536662026,443.8881206927035 68.61985221930081,443.1704168232973 70.99674469075399,444.36658872207045 72.11285072084866,443.33788125545834 72.40221154346364,441.0651395033492 72.96026455849642,440.8498259878397 74.17971373948967,441.47184227265825 74.55174908283516,440.22780805763614 76.34991990908748,439.6297123422846 76.49460032035131,437.76364393321273 74.22105099988403,437.1894660587859 74.11770784889814,435.2037567676598 71.20343099260936,432.6199171617918 71.1620937322441,431.32798671112687 68.61985221930081,429.27045318993623 66.94569317417336,428.6723296024429 65.66423810261767,428.69625457520306 64.05208494808176,429.74895096442197 62.37792590298341,430.15567330713384 56.15666821683408,429.7968006883748 52.95303053790121,430.65809405306936 50.72081847777008,429.9881994864263 43.73482147467439,430.87341690136236 41.688627086230554,433.21803070724127 41.77130160701927,433.67259598427336 41.62662119566812,433.1701816795976 38.81568749033613,432.54814343410544 35.79806748309056,433.48120018525515 34.26858884925605,433.31372873335204 32.5944298041577,432.38067131755815 30.03151966104633,432.4285205059423 29.184105823369464,433.0744835951482 25.794450472778408,433.21803070724127 25.360409238841385,434.4621020083141 22.44613238258171,434.41425323381554 22.11543429963058,436.49566592331394 18.250400454737246,438.5770601886179 20.54461840543081,444.82113244829816 15.026094145636307,447.4287610579777 12.070480028924067,455.08401746368327 10.603007285710191,456.92602634461946 9.114865912270034,457.50015603381325 8.536144267040072,456.0887513688358 6.407275357865728,456.5193503000919 8.432801116112387,456.42366171683534 9.321552214125404,455.5385404762783 9.858936598961009,448.60098835191457 8.825505089684157,445.65844753876445 4.939802614593646,440.5388172284147 4.381749599531759,438.002884300382 4.877796724031214,432.59599258836533 3.7410220637975726,430.1317484829051 0.0,427.8588790815993 0.22735493205254897,424.8921533324319 1.6534904149011709,424.91607868987194 1.798170826252317,424.3179440246895 3.8650338448933326,427.35645235396805 6.59329302952392,428.600554669727 9.321552214125404,429.1029787388252 16.76225908129709,428.9115792200173 22.694155944831436,426.9258000185364 26.869219242507825,424.43757107942656 29.16343719320139,421.78183613969304 30.176200072368374,419.12607119952736 31.6023355552461,407.1388669228909 33.46251227200264,402.7362272349419 35.4053635095479,400.29559796571266 44.933602025557775,396.25175447092624 52.064279439888196,395.0074809359503 53.63509533405886,392.4471281299193 53.15971683978569,388.61851114430465 55.846638763992814,388.714227329212 60.24905699377996,388.0442132166936 78.91283005216974,381.7507731286896 93.29819666201365,379.64494565421774 112.43734821473481,380.6260721664439 145.7758487056126,385.02912606952304 161.09130367386388,386.2973817261809 183.95080866015633,390.86783118141466 229.44246370071778,389.98246309782553 257.4071203430649,390.1260365271737 262.7602955613984,389.1928076685581 267.1833824213536,387.3502680147212 279.7912468351424,375.98363250018156 284.04898465352017,373.13590504732565 288.120704800298,371.2693086628133 295.334056735388,369.713800347512 307.34253087377874,369.88131712249015 312.57169431098737,369.01980100758374 348.7624657675624,355.47443787939847 351.5733994729526,353.36837486676814 353.14421536715236,351.23836011381354 357.56730222707847,337.6201688157744 359.6134966155223,335.0831250086485 361.5356792228704,333.83852745991317 363.93324032452074,333.1444221157144 376.7271224099386,331.8519446286664 384.6018705110182,330.4876551194902 422.77683046556194,319.47730932131526 430.9822766496218,321.29644553481194 431.3956492533325,323.3070533736609 431.56099829482264,321.48793273736374 451.6302382059512,326.58622207881126 457.89283315252396,326.9452523672662 463.51470056324615,326.3947390337853 463.6387123444001,327.8308580652374 463.6387123444001,326.3947390337853 464.3001085103024,326.03570790353115 489.12313336436637,320.43475119055074 489.8051981604949,321.2007018749282 491.23133364337264,341.13847666198853 492.5127887149283,341.95222743428894 521.717563168495,334.5086961904599 556.1721696894965,323.0437604695908 578.452953030559,314.9772802376392 588.0845346974675,312.41605495725526 609.5799100914155,303.9901447236043 617.3926523019909,299.8488904961414 623.0765256033046,297.8620200480218 638.4126492016949,296.4975330118177 678.6751408050768,299.0589319705614 687.3559654834098,301.2372960081266 688.0173616493994,300.25583779005683 687.4799772645347,279.78790806587494 685.929830000503,273.0606314675679 705.461685526825,263.24468615773367 710.2361390998994,261.66452000338177 718.3589107631997,257.0436700343271 729.9746809280186,251.24952229580958 731.1734614788438,258.16896312458266 730.7394202449359,250.8424900090613 753.2682271482772,239.87629551456484 772.9447630858631,232.3816362383659 799.8346509585099,216.72109588197782 799.4212783547991,215.64349730944377 800.0,214.35037248571462 796.8790368418559,205.89699193433626 793.0553402573278,194.2341790797218 792.8073166951071,182.3791853509174 789.9550457293517,171.29003233119147 789.9757143595489,154.42776605003746 787.9088513408788,148.15201052145858 787.7848395598121,137.9715152134595 787.8468454503745,134.11478850676212 789.7483594274672,133.8033730208117 790.3890869632305,133.1326305680559 789.6243476463715,131.86300566708087 789.7483594274672,129.51537923357682 788.5495788766711,128.53320201011957" stroke="green" stroke-width="10" /></svg>