<?xml version="1.0" encoding="utf-8" ?>
<svg baseProfile="full" height="600" version="1.1" width="800" xmlns="http://www.w3.org/2000/svg" xmlns:ev="http://www.w3.org/2001/xml-events" xmlns:xlink="http://www.w3.org/1999/xlink"><defs /><polyline fill="none" points="390.516193238087,0.9288844413822517 382.50170865049586,-1.1641532182693481e-10 384.1046055681072,15.481370162335224 383.8374560815282,37.464779786299914 382.7688581366092,45.20537898526527 383.8374560815282,60.37689601187594 384.37175505422056,74.30985489336308 384.6389045403339,110.22563104331493 384.37175505422056,133.44681128952652 382.7688581366092,148.3082731969189 384.6389045403339,163.16966217104346 384.6389045403339,178.3405881873332 385.4403529991396,190.41535253508482 387.3103994028643,199.0843844267074 387.3103994028643,198.77477657259442 395.32488398998976,219.8280385779217 402.8050696058199,234.37947236478794 410.552404706832,256.05169094831217 411.62100265175104,260.38611605518963 412.4224511105567,272.7701536064269 411.8881521378644,314.875502509065 412.1553016239777,327.87850666686427 415.09394597262144,333.1416115264874 420.7040851842612,339.3334878872847 420.43693569814786,340.26226825022604 413.4910490559414,339.95267482707277 412.4224511105567,340.57186164159793 411.8881521378644,343.35820073413197 412.4224511105567,358.83781568869017 411.3538531656377,405.27618588891346 411.62100265175104,422.3034099090146 410.2852552207187,475.8611450813478 410.819554193411,481.4335718092043 414.2924975142814,497.5316358860582 427.64997182646766,549.5401813305216 429.252868744079,558.208185429452 429.252868744079,561.3038951690542 428.7185697713867,562.5421781791374 427.64997182646766,563.1613194942474 393.98913655942306,562.8517488522921 392.65338912792504,563.4708901041886 392.11909015569836,565.9474538466893 390.783342724666,566.8761647277279 381.7002601912245,566.5665944658685 376.0901209805161,566.8761647277279 371.0142807420343,571.2101450761547 370.7471312554553,573.0675633276114 373.68577560409904,580.187656075228 376.0901209805161,592.8799538168823 374.4872240629047,598.7617323003942 372.884327145759,599.6904331229161 373.1514766314067,599.0712992731715 372.082878686022,599.9999999998836 371.281430227682,599.6904331229161" stroke="green" stroke-width="10" /></svg>