<?xml version="1.0" encoding="utf-8" ?>
<svg baseProfile="full" height="600" version="1.1" width="800" xmlns="http://www.w3.org/2000/svg" xmlns:ev="http://www.w3.org/2001/xml-events" xmlns:xlink="http://www.w3.org/1999/xlink"><defs /><polyline fill="none" points="452.98944900371134,338.3141346387565 452.05158264935017,339.401007759152 447.8311840565875,338.3141346387565 445.01758499536663,333.4232028478291 441.7350527551025,331.7928912518546 429.07385697681457,329.0757041447796 422.97772567439824,325.81507778563537 413.13012895639986,325.2716398637276 402.34466588683426,326.3585156504996 396.24853458534926,326.3585156504996 392.0281359916553,325.2716398637276 380.3048065658659,320.38069607457146 372.33294255658984,319.2938190656714 365.298944901675,316.03318670718 360.6096131308004,316.03318670718 353.57561547588557,319.2938190656714 351.23094958998263,319.2938190656714 345.1348182884976,316.57662557205185 340.4454865185544,315.4897477852646 320.75029308442026,313.3159915469587 302.93083235714585,313.8594306893647 277.1395076215267,312.229113094043 269.63657678849995,310.055355519522 252.7549824155867,308.96847640140913 243.8452520519495,308.96847640140913 235.40445486549288,306.79471749649383 230.24618991836905,303.53407746949233 222.27432590909302,305.164397733286 213.83352872356772,304.6209577003028 208.206330598332,300.27343544573523 199.76553341094404,288.86117260879837 195.5451348181814,286.14396356092766 183.3528722161427,282.8833108707331 164.12661195825785,283.42675312422216 150.99648300278932,279.07921353634447 136.92848769016564,264.40624117990956 133.64595545176417,262.77590841893107 121.45369284972548,252.9939013493713 115.82649472542107,248.64633687399328 108.79249707050622,245.929107272299 105.5099648302421,243.21187628153712 98.9449003515765,237.77741013164632 86.75263774953783,223.10432378062978 81.12543962523341,220.38708112365566 73.1535756168887,218.2132859970443 60.023446660488844,211.6918952865526 52.52051582746208,205.17049657576717 46.89331770222634,197.0187369363848 43.61078546382487,189.41041666222736 41.73505275696516,182.88899061712436 37.04572098515928,172.019929432543 32.35638921521604,167.1288446476683 25.322391560301185,164.955027744174 18.757327081635594,164.955027744174 17.819460727274418,164.955027744174 15.94372802041471,169.84611452720128 14.536928488872945,170.38956833677366 9.847596717998385,170.38956833677366 8.909730363637209,171.47647578944452 8.909730363637209,174.193743446609 12.661195781081915,179.08482173015364 13.599062134511769,181.80208549974486 20.633059789426625,185.0628001880832 21.101992967538536,187.23660886962898 34.232121923938394,190.49732022569515 43.14185228664428,188.3235128771048 45.48651817254722,188.86696479702368 52.05158265028149,199.73599153780378 57.209847597405314,204.08359601255506 58.14771395176649,208.43119693058543 62.83704572170973,211.6918952865526 71.74677608441561,216.0394899819512 86.28370457328856,218.2132859970443 91.44196952041239,219.8436324261129 96.13130129035562,225.8215650501661 110.19929660111666,237.2339632117655 118.64009378664196,241.0380904879421 121.92262602690607,244.2987688446883 122.86049238126725,243.21187628153712 124.73622508812696,247.01599927968346 133.64595545176417,255.7111273407936 150.05861664842814,274.731670394307 158.49941383395344,279.622656179592 165.53341149073094,281.2529837752227 165.53341149073094,284.5136374658905 162.25087925046682,285.6005215838086 158.49941383395344,289.9480558389332 158.03048065677285,294.29558653896675 162.7198124267161,299.18655432597734 168.34701055195183,301.90375670720823 178.1946072690189,311.68567378330044 180.53927315492183,316.57662557205185 180.53927315492183,319.83725759689696 177.2567409146577,325.2716398637276 166.00234466604888,331.7928912518546 162.7198124267161,335.053513944149 161.7819460723549,337.22726129647344 162.25087925046682,341.5747533321846 165.06447831261903,345.3788059493527 165.53341149073094,348.0959847222548 165.53341149073094,358.42125139571726 164.12661195825785,360.05155482771806 157.092614303343,364.399028199492 152.40328253246844,368.74649801757187 147.7139507625252,373.63739731302485 144.4314185231924,378.52829210902564 133.64595545176417,389.39693110319786 120.9847596725449,388.310068203602 111.6060961317271,385.0494781730231 108.79249707050622,382.87575037265196 105.97889800835401,382.332318284316 98.9449003515765,376.8979943441227 94.72450175881386,374.72426321241073 85.34583821892738,372.00709804845974 82.53223915677518,372.00709804845974 76.43610785529017,377.4414269879926 69.87104337662458,380.70202168566175 64.71277842950076,385.0494781730231 62.83704572170973,393.20094950217754 60.96131301485002,397.00496517913416 51.11371629592031,403.5261285796296 49.70691676530987,405.1564181793947 48.769050410948694,407.87356640188955 48.769050410948694,412.76442970358767 50.17584994249046,417.1118599732872 57.6787807745859,427.98042009281926 57.6787807745859,429.6107021942735 56.27198124397546,432.3278379193507 48.769050410948694,432.3278379193507 41.26611957885325,427.98042009281926 35.638921454548836,426.89356508059427 29.542790153063834,427.43699261383153 19.226260258816183,430.1541294497438 12.661195781081915,429.6107021942735 0.0,429.6107021942735 5.158264948055148,429.6107021942735 11.25439624954015,430.6975566511974 15.94372802041471,432.8712648982182 19.69519343599677,433.414691821672 27.66705744434148,430.1541294497438 35.638921454548836,430.1541294497438 42.203985933214426,431.784410885768 47.83118405658752,434.5015454997774 61.43024619016796,435.04497225559317 70.33997655380517,431.784410885768 84.4079718645662,421.4592866864987 103.16529894527048,418.19871698482893 107.85463071614504,416.56843138323165 115.35756154824048,410.59071323554963 120.04689331818372,404.6129883690737 133.17702227458358,397.00496517913416 139.7420867541805,388.8534996807575 147.7139507625252,374.72426321241073 151.93434935621917,372.00709804845974 162.25087925046682,362.76872610347345 164.12661195825785,360.05155482771806 164.59554513543844,356.2475127093494 166.47127784322947,353.53033810365014 169.7538100834936,352.44346787175164 197.42086752690375,355.1606430343818 201.64126612152904,354.61720811366104 210.08206330612302,350.81316210655496 211.0199296604842,349.72629131912254 210.5509964833036,342.6616257855203 206.33059789054096,335.053513944149 204.92379835993052,334.5100769668352 201.17233294341713,326.90195346158 202.110199296847,323.64132576808333 203.51699882932007,321.46757286111824 205.8616647142917,320.38069607457146 224.15005861781538,323.64132576808333 227.43259085621685,325.2716398637276 228.37045721150935,326.90195346158 238.686987105757,332.3363285055384 242.43845252227038,331.7928912518546 244.78311840631068,332.87976570473984 257.44431418646127,332.87976570473984 268.6987104350701,337.7706979957875 275.26377491280437,338.3141346387565 287.92497069202363,343.20506193023175 292.1453692847863,344.2919340506196 310.4337631901726,345.3788059493527 325.4396248552948,344.2919340506196 342.32121922727674,349.1828558424022 348.886283705011,348.6394203095697 351.6998827671632,347.55254907906055 353.57561547588557,344.83537002676167 352.6377491215244,346.46567762549967 354.04454865306616,347.55254907906055 360.14067995361984,350.81316210655496 364.3610785463825,350.81316210655496 373.7397420881316,348.0959847222548 378.4290738571435,348.6394203095697 387.33880422171205,352.98690301482566 394.8417350528762,353.53033810365014 402.34466588683426,354.61720811366104 419.2262602588162,360.05155482771806 447.36225088033825,362.2252919592429 456.27198124304414,361.13842350430787 465.6506447829306,358.42125139571726 468.93317702319473,356.7909474649932 471.27784290816635,351.90003267186694 472.2157092625275,351.90003267186694 474.0914419712499,352.44346787175164 478.3118405640125,356.2475127093494 483.00117233302444,359.50812040572055 513.4818288395181,370.37679828400724 523.3294255575165,371.46366484835744 535.0527549833059,370.92023159377277 558.4994138339534,372.5505311919842 563.6576787810773,374.18083028960973 575.3810082068667,373.63739731302485 586.6354044545442,375.2676960781682 598.8276670565829,378.52829210902564 604.4548651827499,379.07172458735295 616.6471277857199,379.6151570084039 627.9015240333974,376.8979943441227 636.342321219854,379.07172458735295 639.6248534582555,378.52829210902564 641.5005861669779,379.6151570084039 656.0375146549195,380.15858937590383 664.9472450185567,384.5060463058762 668.2297772569582,383.96261438285 673.8569753812626,386.67977343825623 683.704572099261,386.1363417378161 689.3317702235654,388.310068203602 708.5580304814503,392.1140873800032 711.8405627198517,394.2878114019986 716.9988276679069,399.1786872013472 724.9706916762516,401.8958384785801 732.4736225092784,400.8089781354647 735.7561547486112,398.0918263013009 738.5697538107634,397.00496517913416 747.4794841744006,394.8312422691379 757.7960140686482,395.3746730796993 770.4572098487988,397.00496517913416 779.8358733886853,397.00496517913416 797.6553341150284,399.1786872013472 800.0,397.54839576687664 800.0,392.1140873800032 799.0621336465701,387.76663667010143 796.2485345834866,379.07172458735295 794.8417350528762,377.98485957691446 789.6834701057523,375.8111288892105 772.8018757328391,372.00709804845974 768.5814771400765,369.83336491696537 760.1406799536198,369.2899314959068 755.4513481836766,367.1161972519476 730.5978898014873,364.399028199492 715.1230949591845,364.399028199492 709.0269636586308,362.2252919592429 705.2754982430488,353.53033810365014 698.7104337643832,352.98690301482566 691.2075029304251,354.07377313566394 687.9249706920236,357.33438216499053 686.0492379842326,361.13842350430787 683.2356389220804,363.85559422313236 679.9531066827476,366.029329797253 673.388042204082,367.1161972519476 672.4501758497208,365.4858959885314 668.2297772569582,363.85559422313236 663.5404454860836,362.76872610347345 656.5064478321001,363.85559422313236 647.5967174675316,359.50812040572055 632.5908558024094,355.1606430343818 603.9859320055693,349.72629131912254 586.6354044545442,348.0959847222548 575.849941383116,348.0959847222548 566.9402110213414,347.00911337928846 560.8440797179937,343.74849801766686 553.3411488868296,344.2919340506196 543.4935521688312,342.11818958749063 533.6459554517642,342.11818958749063 517.7022274322808,339.401007759152 496.6002344675362,341.03131702379324 470.3399765547365,338.857571226079 456.27198124304414,338.857571226079 452.05158264935017,337.7706979957875 437.51465416233987,331.2494539418258 436.57678780891,330.16257915552706 426.7291910909116,326.90195346158 412.1922626020387,324.728201888036 404.220398593694,325.2716398637276 402.34466588683426,326.90195346158 418.7573270816356,326.3585156504996 429.07385697681457,327.44539121561684 434.2321219239384,328.5322665576823 442.2039859332144,332.87976570473984 447.8311840565875,334.5100769668352" stroke="green" stroke-width="10" /></svg>