<?xml version="1.0" encoding="utf-8" ?>
<svg baseProfile="full" height="600" version="1.1" width="800" xmlns="http://www.w3.org/2000/svg" xmlns:ev="http://www.w3.org/2001/xml-events" xmlns:xlink="http://www.w3.org/1999/xlink"><defs /><polyline fill="none" points="436.59577824687585,1.1641532182693481e-10 434.7980908942409,28.276586028863676 434.02765345713124,29.169526376994327 429.40502883680165,29.467173098004423 425.8096541315317,28.871879624202847 424.2687792587094,29.169526376994327 423.49834182159975,30.657759679481387 423.49834182159975,47.92121039610356 422.9847168638371,66.97041649883613 423.49834182159975,91.37702963140327 422.72790438495576,100.60386665619444 422.9847168638371,140.18964198394679 422.72790438495576,148.52342082711402 421.70065446943045,161.91694398410618 422.9847168638371,179.17961626814213 422.72790438495576,192.57299838063773 423.75515430094674,204.7758039921755 425.55284165311605,214.29990941751748 429.91865379502997,226.50262395688333 440.44796543056145,247.93165741930716 444.0433401353657,259.8366078545805 448.1523397983983,269.360533151892 449.17958971392363,274.1224841175135 449.6932146716863,301.2059321120614 448.665964756161,315.789222831605 448.4091522777453,332.4557513552718 449.6932146716863,349.12218447530176 449.43640219280496,362.8123974552145 448.665964756161,434.83376220962964 447.12508988240734,478.2838066822151 452.0045269820839,502.3893736542668 460.22252630768344,535.7201992821647 463.30427605472505,546.4335979309399 465.10196340689436,555.6589929633774 464.84515092894435,560.4204757398693 463.56108853407204,562.2060297733406 459.7089013494551,562.5036220055772 431.7163411471993,561.6108452167828 430.17546627437696,562.5036220055772 430.17546627437696,566.0747264245292 428.891403879039,566.3723182614194 424.52559173759073,566.3723182614194 419.6461546374485,568.1578686462017 412.45540522783995,568.1578686462017 410.144092917908,569.9434179363307 409.887280438561,572.0265573904617 414.7667175382376,589.2867984066252 406.29190573329106,592.262691691285 397.3034689715132,594.3458151812665 392.1672193929553,594.6434041297762 389.59909460367635,591.6675132777309 387.2877822937444,591.0723347431049 368.2836588528007,592.8578699834179 355.1862224279903,595.238581935293 349.02272293390706,594.0482262027217 348.2522854972631,592.8578699834179 347.99547301838174,585.1205426999368 343.1160359182395,565.1819507307373 339.7774736927822,554.1710279994877 337.4661613814533,544.3504401699174 335.92528650863096,532.1490576410433 334.89803659310564,533.9346290093381 337.4661613814533,547.0287855891511 342.0887860027142,563.9915827118093 345.17053575022146,568.4554602702847 346.96822310239077,575.5976501324913 349.79316037055105,581.8470518924296 351.334035243839,590.1795667115366 350.3067853283137,595.8337596191559 351.59084772272035,596.7265259166015 368.5404713321477,593.7506371929776 386.77415733551607,593.4530481538968 390.11271956190467,594.0482262027217 393.9649067451246,596.1313484155107 398.5875313654542,595.5361707923003 410.40090539632365,592.5602808529511 411.94178027054295,593.7506371929776 412.19859274849296,596.428937181714 411.42815531231463,598.5120576904155 410.9145303540863,598.5120576904155 410.9145303540863,597.916880554636 410.40090539632365,600.0000000001164 409.63046795967966,598.8096462135436 409.63046795967966,597.6192919405876 403.4669684660621,596.7265259166015 401.15565615473315,595.238581935293 401.4124686345458,596.428937181714 402.4397185500711,595.5361707923003 399.6147812814452,593.4530481538968 402.69653102895245,590.4771560854279" stroke="green" stroke-width="10" /></svg>