<?xml version="1.0" encoding="utf-8" ?>
<svg baseProfile="full" height="600" version="1.1" width="800" xmlns="http://www.w3.org/2000/svg" xmlns:ev="http://www.w3.org/2001/xml-events" xmlns:xlink="http://www.w3.org/1999/xlink"><defs /><polyline fill="none" points="152.66666666790843,250.16886530304328 152.66666666790843,247.85110849235207 150.00000000093132,243.98817889625207 141.33333333395422,240.8978337966837 136.6666666669771,237.80748743517324 122.66666666790843,235.4897268335335 114.66666666697711,232.3993782592006 112.0,230.85420349799097 110.00000000093132,226.99126521497965 105.33333333488554,226.21867732191458 92.0,229.30902842106298 70.66666666697711,229.30902842106298 62.66666666697711,227.76385302841663 44.666666666045785,221.58314829831943 34.66666666511446,221.58314829831943 30.0,218.49279404012486 23.333333333022892,216.17502751667053 15.333333333954215,217.7202052786015 7.33333333209157,222.35573666729033 1.9999999990686774,230.08161599980667 0.0,238.58007414406165 1.3333333330228925,245.5333509715274 6.0,251.71403611684218 8.666666666045785,258.6673008627258 21.999999999068677,263.3028071373701 44.666666666045785,261.7576386947185 53.333333333954215,267.1657268628478 59.333333333954215,268.7108942004852 116.00000000093132,277.9818915911019 148.6666666669771,278.7544741947204 171.33333333209157,274.89156039245427 190.66666666604578,275.6641433099285 206.66666666790843,279.5270567177795 239.99999999906868,291.888366357889 272.6666666660458,294.20610966393724 298.6666666669771,298.841594143305 354.0000000009313,301.1593353189528 380.0,305.022235696204 383.9999999990687,304.2496557799168 388.0000000009313,304.2496557799168 398.6666666660458,301.1593353189528 420.0,305.022235696204 450.6666666669771,305.79481553612277 470.6666666669771,311.9754514019005 486.0000000009313,314.2931885505095 493.3333333339542,320.47381746629253 497.3333333339542,322.01897390466183 517.3333333339542,322.01897390466183 531.3333333339542,332.83506013965234 537.3333333339542,335.1527908896096 548.6666666660458,332.83506013965234 563.3333333330229,327.42701895767823 582.0,326.6544413315132 628.6666666669771,328.1995965074748 643.3333333320916,331.28990591084585 653.3333333330229,331.28990591084585 678.6666666660458,335.1527908896096 702.6666666660458,337.4705209308304 710.6666666669771,336.6979443305172 721.3333333330229,338.24309745198116 733.3333333330229,338.24309745198116 746.6666666679084,335.92536764917895 752.0,338.24309745198116 747.9999999990687,347.51400955813006 749.3333333330229,352.1494613457471 752.6666666679084,356.01233566598967 765.3333333320916,356.01233566598967 772.6666666669771,355.2397609585896 776.0,355.2397609585896 778.6666666669771,357.5574848386459 778.6666666669771,360.6477822405286 774.6666666660458,362.96550446469337 772.6666666669771,372.2363862465136 780.6666666660458,381.5072566564195 784.6666666669771,383.82497248379514 795.3333333320916,381.5072566564195 798.0000000009313,379.18954012030736 800.0,373.00895921327174 800.0,367.6009467751719 797.3333333330229,363.7380783795379 792.0,350.604311064817 782.6666666669771,322.79155200719833 781.3333333330229,322.01897390466183 780.6666666660458,316.6109249861911 778.6666666669771,311.9754514019005 776.6666666660458,311.20287219434977 768.0000000018626,311.9754514019005 766.6666666679084,315.8383462517522 763.3333333330229,317.3835036396049 744.6666666669771,313.5206095795147 726.6666666660458,313.5206095795147 691.3333333320916,307.33997497707605 673.3333333339542,308.1125545776449 662.0000000009313,305.022235696204 654.0,301.1593353189528 641.3333333330229,298.841594143305 634.6666666660458,298.841594143305 621.3333333339542,295.7512714737095 595.3333333320916,292.66094753844664 588.0000000009313,293.43352864170447 574.6666666660458,288.79804084124044 563.9999999990687,288.0254592662677 524.6666666669771,285.70771406497806 519.3333333339542,282.61738602491096 516.0,276.43672614870593 516.6666666660458,275.6641433099285 514.6666666660458,271.80122792813927 512.6666666669771,270.25606122240424 506.6666666660458,267.9383105719462 501.33333333209157,267.9383105719462 496.6666666669771,270.25606122240424 493.3333333339542,271.80122792813927 486.0000000009313,281.8448038166389 482.0,285.70771406497806 474.6666666660458,286.48029587836936 452.6666666660458,281.0722215278074 439.3333333339542,281.8448038166389 425.3333333330229,277.9818915911019 410.66666666511446,271.80122792813927 377.3333333330229,270.25606122240424 357.9999999990687,262.5302229546942 334.6666666669771,260.9850543551147 309.9999999990687,254.03179173963144 291.3333333330229,256.3495466564782 240.66666666511446,250.16886530304328 206.0,253.25920661119744 184.6666666669771,251.71403611684218 184.00000000093132,248.62369417399168 181.3333333330229,250.16886530304328 178.00000000093132,248.62369417399168 174.66666666604578,250.94145074905828 173.3333333330229,254.80437679216266 171.33333333209157,256.3495466564782 166.0,254.80437679216266 160.66666666604578,250.94145074905828 153.3333333330229,250.16886530304328 145.33333333209157,243.21559273824096 139.3333333330229,240.12524732481688 113.33333333302289,234.7171398070641 78.66666666604578,232.3993782592006 65.99999999906868,229.30902842106298 52.66666666697711,223.90091316541657 36.000000001862645,224.67350129736587 31.333333333022892,220.03797132801265 22.666666666045785,217.7202052786015 12.666666666977108,219.26538272295147 6.6666666669771075,223.90091316541657 1.9999999990686774,231.62679091887549 0.6666666679084301,241.6704201893881 1.9999999990686774,247.85110849235207 7.999999999068677,255.57696176273748 10.0,260.9850543551147 14.66666666790843,264.0753912399523 31.333333333022892,263.3028071373701 43.33333333209157,261.7576386947185 55.33333333302289,267.1657268628478 76.66666666604578,269.4834777517244 120.66666666697711,278.7544741947204 153.3333333330229,279.5270567177795 162.6666666669771,276.43672614870593 168.6666666669771,276.43672614870593 231.3333333330229,291.11578509630635 257.3333333330229,292.66094753844664 278.6666666660458,292.66094753844664 291.3333333330229,294.20610966393724 304.6666666669771,292.66094753844664 308.66666666511446,294.20610966393724 343.3333333339542,298.841594143305 366.6666666660458,304.2496557799168 386.6666666660458,304.2496557799168 395.3333333339542,301.931915551424 424.0000000009313,305.79481553612277 444.0,305.79481553612277 465.3333333339542,308.1125545776449 482.6666666660458,311.9754514019005 493.3333333339542,318.9286607108079 500.6666666660458,322.01897390466183 512.6666666669771,323.5641300310381 517.3333333339542,322.79155200719833 527.3333333320916,331.28990591084585 534.6666666669771,334.3802140527405 542.6666666660458,333.60763713438064 562.0,327.42701895767823 586.0,325.88186362339184 630.6666666679084,328.1995965074748 637.3333333320916,331.28990591084585 645.9999999990687,332.0624830634333 647.3333333330229,330.5173286786303 648.0,328.1995965074748 647.3333333330229,325.109285838902 645.9999999990687,323.5641300310381 645.3333333330229,305.79481553612277 645.9999999990687,301.931915551424 650.6666666679084,300.3867550054565 661.3333333330229,301.931915551424 666.6666666669771,305.79481553612277 699.3333333339542,305.022235696204 715.3333333330229,308.1125545776449 746.6666666679084,310.4302929090336 761.3333333330229,314.2931885505095 763.3333333330229,314.2931885505095 763.3333333330229,312.74803052889183 722.6666666660458,311.9754514019005 694.6666666669771,308.1125545776449 665.3333333330229,307.33997497707605 652.6666666660458,299.61417461466044 647.3333333330229,299.61417461466044 632.6666666669771,296.52385225938633 628.6666666669771,296.52385225938633 588.0000000009313,290.3432037560269 575.3333333320916,290.3432037560269 548.6666666660458,285.70771406497806 527.3333333320916,285.70771406497806 518.0,282.61738602491096 514.6666666660458,277.20930890832096 514.0000000009313,271.02864461624995 510.6666666669771,267.9383105719462 508.0000000009313,267.1657268628478 496.0,268.7108942004852 492.6666666669771,270.25606122240424 489.3333333330229,272.5738111631945 483.3333333339542,281.0722215278074 482.6666666660458,284.1625502021052 479.9999999990687,285.70771406497806 476.6666666669771,285.70771406497806 473.9999999990687,288.79804084124044 469.3333333339542,290.3432037560269 465.3333333339542,295.7512714737095 464.0,295.7512714737095 460.0,294.20610966393724 444.0,283.389968150761 444.0,281.8448038166389 442.6666666669771,281.0722215278074 434.0,279.5270567177795 402.6666666669771,269.4834777517244 373.3333333330229,267.1657268628478 346.0,260.9850543551147 333.3333333330229,261.7576386947185 308.66666666511446,256.3495466564782 300.0000000009313,255.57696176273748 291.3333333330229,257.12213146919385 277.3333333330229,254.03179173963144 267.33333333209157,254.80437679216266 252.6666666669771,250.94145074905828 241.99999999906868,250.94145074905828 217.3333333330229,254.03179173963144 199.33333333209157,253.25920661119744 178.6666666669771,247.07852273155004 158.66666666790843,247.85110849235207 132.66666666604578,237.80748743517324 106.66666666604578,232.3993782592006" stroke="green" stroke-width="10" /></svg>