<?xml version="1.0" encoding="utf-8" ?>
<svg baseProfile="full" height="600" version="1.1" width="800" xmlns="http://www.w3.org/2000/svg" xmlns:ev="http://www.w3.org/2001/xml-events" xmlns:xlink="http://www.w3.org/1999/xlink"><defs /><polyline fill="none" points="142.176870749332,252.69929270306602 136.05442176945508,250.3342330395244 134.69387755170465,252.69929270306602 122.4489795928821,251.1225863415748 117.68707483168691,248.75752619700506 106.12244898080826,248.75752619700506 87.07482993323356,244.02740373136476 70.7482993202284,242.45069559523836 49.659863946959376,233.77879510028288 36.73469387833029,233.77879510028288 26.530612244270742,229.04866344342008 20.40816326532513,229.04866344342008 8.843537415377796,232.202084871009 4.081632654182613,237.72056926134974 0.6802721098065376,249.54587965924293 3.401360545307398,260.58281967183575 9.52380952425301,269.25469003245234 9.52380952425301,274.7731479089707 13.605442178435624,277.13820007862523 23.809523810632527,279.50325152277946 29.93197278957814,278.71490112133324 37.414965987205505,276.34984943736345 43.53741496615112,275.5614987136796 57.823129252530634,281.07995208119974 83.67346938885748,282.6566523164511 102.72108843550086,286.59840149758384 143.53741496801376,291.32849785871804 157.14285714365542,291.32849785871804 172.78911564592272,288.1751006064005 200.68027210887522,292.1168469665572 246.93877551145852,305.5187695263885 279.59183673467487,304.73042178573087 319.0476190475747,308.67215968482196 328.5714285718277,311.03720145719126 357.82312925253063,312.61389557039365 391.83673469442874,318.13232242455706 402.7210884373635,315.76728282822296 416.32653061207384,319.70901508722454 432.653061225079,322.07405347470194 447.61904762033373,321.2857074267231 474.82993197254837,329.95750953350216 480.2721088435501,331.53419977705926 483.67346938792616,331.53419977705926 493.8775510219857,338.62930189073086 516.3265306139365,337.052613095846 525.1700680274516,337.84095753449947 529.2517006807029,340.20599036244676 529.2517006807029,343.3593663373031 546.2585034025833,350.454457573127 553.7414965992793,349.6661144243553 560.5442176880315,346.5127410273999 576.8707483010367,341.7826785100624 591.1564625864848,340.99433447699994 602.7210884364322,342.5710224653594 623.1292517017573,342.5710224653594 650.3401360558346,346.5127410273999 677.5510204080492,347.3010844970122 702.7210884355009,351.2428006399423 706.1224489798769,352.81948653329164 724.4897959185764,352.81948653329164 752.3809523805976,355.1845147688873 766.6666666669771,353.6078293584287 770.0680272113532,355.97285735141486 768.7074829936028,358.3378846216947 765.9863945599645,361.4912531855516 761.9047619057819,363.06793698249385 761.2244897959754,363.8562787617557 764.6258503412828,366.22130361478776 769.387755102478,367.009645069018 775.5102040823549,366.22130361478776 785.7142857154831,367.79798644408584 791.8367346944287,367.009645069018 800.0,362.27959512453526 793.1972789121792,363.8562787617557 785.0340136066079,369.3746689534746 769.387755102478,371.73969211336225 764.6258503412828,369.3746689534746 763.9455782324076,364.6446204581298 765.9863945599645,360.7029111641459 765.9863945599645,356.761199856177 763.2653061235324,352.81948653329164 760.5442176880315,352.0311436280608 751.7006802717224,355.1845147688873 746.258503401652,355.1845147688873 709.5238095251843,350.454457573127 689.1156462607905,348.87777119642124 680.2721088444814,346.5127410273999 656.4625850347802,344.1477101314813 652.3809523815289,341.7826785100624 652.3809523815289,339.4176461654715 654.4217687072232,328.38081896631047 651.0204081637785,312.61389557039365 655.1020408170298,311.82554855477065 667.346938777715,313.4022425063886 680.2721088444814,320.49736129678786 699.3197278911248,319.70901508722454 725.1700680274516,322.07405347470194 737.4149659881368,321.2857074267231 756.4625850347802,324.4390911399387 763.9455782324076,324.4390911399387 766.6666666669771,326.0157825127244 776.8707483001053,329.16916428972036 774.8299319734797,329.95750953350216 757.8231292525306,328.38081896631047 709.5238095251843,320.49736129678786 683.6734693897888,321.2857074267231 672.789115646854,319.70901508722454 667.346938777715,314.19058935996145 664.6258503403515,313.4022425063886 646.2585034025833,312.61389557039365 639.4557823138312,311.03720145719126 598.6394557841122,307.88381226500496 563.9455782324076,300.7886818717234 534.693877552636,298.4236369547434 527.2108843550086,295.27024260675535 523.8095238097012,291.32849785871804 523.1292517017573,283.4450023151003 519.7278911573812,279.50325152277946 517.6870748307556,278.71490112133324 500.00000000186265,284.23335223132744 493.1972789131105,290.5401486661285 487.75510204117745,300.7886818717234 481.6326530613005,301.577030015178 479.5918367365375,300.7886818717234 476.1904761912301,294.4818938174285 470.7482993211597,293.6935449470766 463.94557823240757,289.75179939204827 444.21768707595766,288.96345004066825 424.48979592043906,284.23335223132744 380.95238095428795,279.50325152277946 365.9863945581019,275.5614987136796 361.2244897969067,276.34984943736345 359.1836734712124,276.34984943736345 356.4625850347802,277.92655064119026 332.653061225079,275.5614987136796 308.8435374163091,270.0430413992144 282.31292517017573,267.67798705631867 272.78911564778537,264.52458013547584 258.50340136140585,263.73622820340097 252.3809523815289,262.1595240980387 233.33333333488554,261.37117192614824 216.32653061300516,265.31293198559433 183.67346938792616,259.0061149238609 157.14285714365542,259.7944673402235 151.70068027172238,258.2177624278702 138.09523809701204,251.91093956353143 115.64625850412995,245.60411154245958 102.04081632755697,245.60411154245958 89.79591836966574,246.39246532693505 71.42857143003494,244.81575767602772 45.578231293708086,236.9322145888582 34.69387755356729,236.1438598386012 22.448979592882097,228.2603078871034 14.285714286379516,229.83701892243698 6.8027210887521505,232.9904400249943 0.0,242.45069559523836 0.6802721098065376,252.69929270306602 2.721088436432183,260.58281967183575 8.843537415377796,267.67798705631867 8.16326530650258,271.619743891526 8.843537415377796,273.196446062997 17.687074831686914,277.13820007862523 28.57142857182771,277.13820007862523 44.217687075957656,273.9847970264964 59.8639455800876,281.07995208119974 82.99319728091359,283.4450023151003 100.0,288.96345004066825 109.52380952518433,290.5401486661285 151.0204081647098,291.32849785871804 165.98639455903322,288.96345004066825 169.38775510247797,287.38675109297037 180.27210884541273,288.96345004066825 182.99319727998227,291.32849785871804 183.67346938792616,294.4818938174285 199.99999999906868,292.1168469665572 216.32653061300516,292.9051959980279 229.25170068163425,296.05859131226316 236.7346938783303,300.0003336458467 241.4965986404568,301.577030015178 260.5442176871002,302.36537807947025 278.2312925187871,306.3071171855554 327.8911564638838,311.03720145719126 355.1020408179611,311.82554855477065 381.63265306223184,316.55562944244593 395.2380952378735,317.3439759737812 404.7619047621265,314.19058935996145 429.25170068163425,318.9206687975675 444.21768707595766,317.3439759737812 449.6598639469594,319.70901508722454 459.18367346934974,320.49736129678786 463.94557823240757,322.86239944491535 470.0680272113532,329.16916428972036 474.82993197254837,329.16916428972036 481.6326530613005,326.80412807734683 487.75510204117745,326.0157825127244 502.7210884364322,333.89923454029486 524.4897959195077,335.4759239796549 534.0136054428294,340.99433447699994 538.7755102049559,346.5127410273999 543.5374149680138,347.3010844970122 546.2585034025833,349.6661144243553 551.7006802717224,350.454457573127 567.3469387758523,344.1477101314813 591.1564625864848,340.99433447699994 613.605442179367,343.3593663373031 636.7346938783303,343.3593663373031 642.1768707484007,342.5710224653594 657.8231292525306,344.1477101314813 658.5034013614058,344.1477101314813 658.5034013614058,340.20599036244676 655.1020408170298,331.53419977705926 653.0612244913355,322.86239944491535 654.4217687072232,315.76728282822296 655.7823129249737,314.97893613530323 667.346938777715,314.97893613530323 678.9115646257997,320.49736129678786 700.6802721088752,319.70901508722454 717.6870748307556,320.49736129678786 755.1020408170298,326.80412807734683 776.1904761912301,326.80412807734683 764.6258503412828,325.2274368656799 751.0204081637785,325.2274368656799 723.8095238115638,322.86239944491535 702.040816327557,318.13232242455706 674.829931974411,318.9206687975675 664.6258503403515,311.03720145719126 658.5034013614058,310.2488542809151 636.0544217694551,309.4605070226826 622.4489795919508,306.3071171855554 591.1564625864848,303.94207396311685 554.4217687081546,297.6352884871885 532.653061225079,296.05859131226316 526.5306122461334,294.4818938174285 521.7687074849382,289.75179939204827 519.7278911573812,281.8683022377081 517.6870748307556,279.50325152277946 512.9251700695604,278.71490112133324 498.6394557831809,281.8683022377081 491.15646258648485,292.9051959980279 490.4761904766783,296.8469399414025 486.3945578224957,301.577030015178 483.67346938792616,302.36537807947025 476.87074830010533,302.36537807947025 472.78911564778537,307.88381226500496 468.70748299360275,309.4605070226826 459.18367346934974,303.94207396311685 441.4965986395255,299.2119853394106 419.04761904943734,287.38675109297037 406.12244897987694,284.23335223132744 389.7959183668718,283.4450023151003 370.7482993192971,278.71490112133324 356.4625850347802,270.8313926849514 340.13605442177504,272.4080950166099 323.8095238106325,270.8313926849514 312.2448979606852,269.25469003245234 308.8435374163091,267.67798705631867 294.5578231299296,267.67798705631867 285.0340136066079,263.73622820340097 278.2312925187871,263.73622820340097" stroke="green" stroke-width="10" /></svg>