<?xml version="1.0" encoding="utf-8" ?>
<svg baseProfile="full" height="600" version="1.1" width="800" xmlns="http://www.w3.org/2000/svg" xmlns:ev="http://www.w3.org/2001/xml-events" xmlns:xlink="http://www.w3.org/1999/xlink"><defs /><polyline fill="none" points="381.82905118819326,0.0 382.1086042467505,3.2400458853226155 381.82905118819326,4.860067585483193 377.3562022498809,13.284167074831203 376.23799001518637,19.116222831304185 377.07664919132367,29.160293692257255 377.3562022498809,39.204332713619806 376.5175430737436,61.56030526349787 377.3562022498809,75.81620539585128 377.3562022498809,141.26292379794177 375.9584369561635,163.61817630333826 377.63575530797243,176.57767075987067 377.3562022498809,192.7769643001957 378.1948614255525,205.73633951030206 380.99039201205596,219.01964409952052 384.0654756571166,228.09113718906883 396.3658102382906,251.41771446634084 401.9568714108318,268.5885574722197 405.59106117347255,276.6879794280976 406.7092734077014,283.1675020890543 407.54793258430436,309.4094333942048 406.7092734077014,326.5799622028135 406.15016729105264,348.60993839392904 407.2683795252815,379.3868546168087 406.42972034960985,398.8247529870132 406.15016729105264,444.82730422902387 405.03195505589247,500.54781020688824 406.15016729105264,513.5059270306956 408.9456978770904,529.0555972976144 422.3642446929589,580.8872806384461 424.04156304430217,589.9577380925184 423.7620099862106,592.8732367617777 422.3642446929589,595.4647888841573 390.21564294723794,595.7887327502249 387.42011236120015,596.1126765831141 385.463240950834,599.3521130949957 382.3881573053077,600.0 377.07664919132367,599.3521130949957" stroke="green" stroke-width="10" /></svg>