<?xml version="1.0" encoding="utf-8" ?>
<svg baseProfile="full" height="600" version="1.1" width="800" xmlns="http://www.w3.org/2000/svg" xmlns:ev="http://www.w3.org/2001/xml-events" xmlns:xlink="http://www.w3.org/1999/xlink"><defs /><polyline fill="none" points="431.19924514740705,0.0 430.69805245427415,5.518486424232833 430.4474561070092,45.309360609040596 428.9438780285418,52.27996731677558 428.19208898814395,117.04770336882211 425.6861255224794,122.56596238014754 422.67896936414763,127.79377681738697 422.1777766710147,130.9885475692572 422.42837301734835,151.89968558284454 420.674198591616,177.1671052945312 421.92718032421544,192.5597910444485 421.6765839778818,207.08111623604782 424.1825474430807,228.8629648394417 427.9414926418103,237.28523485700134 433.204015919473,247.4500102463644 439.2183282370679,260.228533419664 443.2278697816655,272.4261610104004 446.48562228726223,280.2674653775757 446.98681498039514,283.46206465538125 447.73860401986167,291.5937556978315 448.2397967129946,307.2762369798729 446.7362186340615,330.2189703002805 446.7362186340615,339.5121766445227 448.2397967129946,354.6135721189203 447.9892003661953,374.36142970225774 447.9892003661953,382.78326839162037 448.74098940659314,387.4297893968178 448.74098940659314,391.2050821169978 448.2397967129946,413.56632845988497 446.98681498039514,417.3415864522103 446.48562228726223,455.3842908841325 445.23264055419713,485.5857698828913 447.9892003661953,499.23440988431685 461.5214030807838,552.9571432410739 463.27557750651613,561.9592316392809 463.27557750651613,564.5727358326549 462.52378846658394,565.4439033628441 460.0178250009194,566.3150706258602 429.9462634138763,565.4439033628441 428.6932816817425,566.3150706258602 428.9438780285418,569.5093483064556 427.4402999486774,570.3805143232457 419.4212168585509,569.799737008987 412.6551155014895,570.0901256807847 410.3997483821586,571.8324570911936 408.8961703032255,574.7363404021598 408.8961703032255,577.3498328446876 413.4069045414217,592.449964340427 410.1491520353593,594.4826682225103 391.85561873717234,599.1288430631394 390.60263700410724,598.5480716234306 388.8484625783749,595.3538265837124 386.84369180584326,594.77305437217 355.5191484862007,597.9673000649782 349.0036434759386,597.6769142411649 348.50245078187436,595.934598675929 348.50245078187436,589.2557124458253 345.2446982767433,575.0267285704613 341.7363494252786,563.4111787100555 338.9797896128148,552.085971882334 336.72442249394953,536.4048417616868 337.4762115338817,543.9550263256533 340.48336769267917,557.6033859752351 344.99410193040967,567.4766265607905 347.5000653960742,568.3477932014503 374.0632781316526,566.89584865293 388.09667353890836,567.186237621936 399.87470182729885,566.6054596540052 403.3830506792292,566.89584865293 405.38782145129517,568.0574043507222 406.1396104907617,570.3805143232457 406.1396104907617,578.2209964580834 408.1443812632933,584.8999086219119 408.8961703032255,591.5788050889969 411.15153742255643,598.5480716234306 410.9009410762228,599.7096143844537 410.1491520353593,600.0" stroke="green" stroke-width="10" /></svg>