<?xml version="1.0" encoding="utf-8" ?>
<svg baseProfile="full" height="600" version="1.1" width="800" xmlns="http://www.w3.org/2000/svg" xmlns:ev="http://www.w3.org/2001/xml-events" xmlns:xlink="http://www.w3.org/1999/xlink"><defs /><polyline fill="none" points="148.38145232014358,261.0668978667818 142.0822397209704,257.0113270781003 136.48293963074684,255.38909818185493 126.68416447937489,253.76686895592138 98.68766404315829,247.27794872876257 91.68853893317282,247.27794872876257 83.98950131237507,248.08906404674053 72.09098862856627,246.46683332603425 58.09273840673268,241.60013917787 42.69466316886246,239.97790713142604 35.695538057014346,235.92232556222007 30.096237970516086,234.3000923548825 22.397200351580977,235.1112090004608 13.998250218108296,238.35567475296557 6.999125109985471,244.8446022742428 2.0997375324368477,252.95575421629474 2.0997375324368477,258.6335556404665 4.1994750667363405,266.74469348881394 8.39895012974739,273.233597796876 9.798775153234601,278.911384713836 13.998250218108296,282.15583255700767 23.097112860530615,286.21139049436897 28.69641294889152,286.21139049436897 44.79440070129931,283.7780559784733 60.19247594103217,290.2669463609345 87.48906386829913,291.8891681251116 98.68766404315829,296.75583143299446 112.68591426126659,300.0002719811164 152.58092738315463,301.6224917541258 167.27909011393785,300.0002719811164 180.57742782123387,296.75583143299446 187.57655293121934,297.5669416934252 209.2738407701254,301.6224917541258 218.3727034125477,301.6224917541258 248.4689413830638,313.78912950400263 256.86789151467383,316.22245481424034 288.3639545068145,312.1669122171588 303.76202974654734,315.4113464616239 329.65879265218973,317.8446712740697 337.3578302729875,320.2779953428544 376.55293088406324,323.5224262732081 384.9518810156733,326.7668558768928 396.15048119053245,327.57796306861565 408.0489938762039,327.57796306861565 419.94750656187534,324.33353379694745 446.54418197833,328.3890701783821 463.34208223968744,326.7668558768928 475.9405074361712,327.57796306861565 489.9387576561421,330.8223910126835 494.13823272287846,330.8223910126835 499.03762029856443,334.066817633342 512.3359580058604,338.9334550718777 520.0349956266582,344.61119498033077 548.0314960628748,350.28893082542345 552.2309711296111,353.53334948560223 557.830271217972,360.0221828254871 564.8293963260949,363.2665975061245 571.8285214360803,361.64439033158123 580.92738407664,355.9666626085527 588.6264216993004,352.7222449434921 611.723534559831,350.28893082542345 627.8215223103762,353.53334948560223 675.415573053062,356.77776681864634 691.5135608054698,355.9666626085527 725.8092738408595,361.64439033158123 781.1023622062057,365.69990764465183 775.5030621159822,364.0777009674348 760.8048993889242,363.2665975061245 751.7060367465019,360.8332866188139 747.5065616797656,362.4554939591326 720.2099737524986,360.0221828254871 686.6141732297838,353.53334948560223 677.5153105873615,353.53334948560223 676.1154855657369,351.9111403217539 675.415573053062,350.28893082542345 676.1154855657369,338.9334550718777 674.0157480333,328.3890701783821 674.0157480333,324.33353379694745 676.1154855657369,322.71131866425276 690.1137357857078,324.33353379694745 698.5126859154552,330.0112841515802 704.8118985146284,331.6334977922961 735.6080489940941,330.8223910126835 752.4059492573142,333.2557111023925 780.4024496953934,334.8779240795411 787.4015748053789,338.12234903872013 799.3000874910504,338.12234903872013 799.3000874910504,337.3112429236062 795.8005249351263,335.6890304433182 772.0034995637834,336.5001367260702 765.7042869646102,334.8779240795411 748.2064741905779,334.066817633342 734.2082239743322,330.8223910126835 718.1102362219244,328.3890701783821 697.8127734027803,330.8223910126835 695.0131233613938,330.0112841515802 684.5144356954843,322.71131866425276 653.7182852141559,320.2779953428544 581.6272965874523,307.3002583584748 552.2309711296111,306.48914909362793 543.1321084871888,303.244711198844 539.63254593499,296.75583143299446 538.9326334223151,291.8891681251116 536.1329833772033,288.6447242638096 533.3333333358169,287.83361308975145 525.6342957131565,288.6447242638096 514.4356955382973,294.32250015158206 503.9370078742504,307.3002583584748 489.9387576561421,310.54469459690154 485.7392825912684,314.60023802518845 484.3394575677812,314.60023802518845 478.04024497047067,312.1669122171588 468.2414698153734,305.6780397426337 436.7454068250954,294.32250015158206 397.550306212157,287.83361308975145 380.0524934399873,282.15583255700767 366.75415573082864,280.5336088007316 345.7567804027349,281.34472071938217 335.258092738688,279.722496798262 333.8582677170634,277.28916029445827 331.05861767195165,276.4780479623005 309.3613298330456,274.8558230455965 299.56255468167365,274.8558230455965 254.06824146956205,267.55580681795254 249.16885389387608,267.55580681795254 231.67104111984372,271.61137221800163 218.3727034125477,275.66693554632366 212.77340332604945,274.04471046151593 198.07524059526622,273.233597796876 194.5756780412048,276.4780479623005 188.97637795470655,278.1002725465223 170.7786526698619,280.5336088007316 167.27909011393785,278.1002725465223 166.57917760498822,270.8002593019046 162.37970253825188,269.98914630617946 152.58092738315463,262.6891256021336 149.08136482909322,261.0668978667818 127.38407699204981,256.20021267188713 82.5896762907505,252.95575421629474 72.79090113937855,249.71129443496466 66.49168854020536,245.65571784274653 53.1933508310467,243.2223708909005 39.89501312375069,238.35567475296557 25.896762903779745,235.1112090004608 11.898512685671449,239.16679098224267 4.899387577548623,244.8446022742428 0.6999125126749277,252.95575421629474 0.0,258.6335556404665 0.0,265.1224665818736 6.299212599173188,274.04471046151593 7.699037618935108,282.15583255700767 11.198600174859166,284.5891675679013 18.197725284844637,287.02250183420256 28.69641294889152,286.21139049436897 37.795275593176484,282.15583255700767 43.394575679674745,281.34472071938217 46.89413823187351,281.34472071938217 58.09273840673268,289.45583535311744 72.09098862856627,288.6447242638096 96.5879265088588,295.94472108827904 116.88538932800293,300.0002719811164 142.0822397209704,300.0002719811164 152.58092738315463,302.4336015195586 163.77952755987644,301.6224917541258 173.5783027112484,297.5669416934252 185.4768153987825,298.3780518723652 216.27296588011086,302.4336015195586 253.36832895874977,313.78912950400263 272.26596675626934,312.1669122171588 305.8617672789842,315.4113464616239 330.35870516113937,315.4113464616239 364.6544181983918,322.71131866425276 394.0507436580956,326.7668558768928 407.3490813653916,326.7668558768928 410.1487314105034,325.14464124059305 415.74803149700165,324.33353379694745 443.7445319350809,329.2001772080548 468.2414698153734,328.3890701783821 481.5398075245321,330.8223910126835 491.3385826777667,335.6890304433182 503.9370078742504,338.12234903872013 519.3350831158459,344.61119498033077 543.1321084871888,346.2334056366235 548.7314085736871,349.47782595455647 557.1303587052971,356.77776681864634 561.3298337720335,358.3999749883078 567.6290463712066,358.3999749883078 585.1268591433764,351.9111403217539 601.9247594065964,351.9111403217539 608.9238845165819,351.10003561573103 660.0174978133291,355.1555583178997 671.2160979881883,354.34445394203067 673.3158355224878,353.53334948560223 674.7156605441123,347.8556159613654 672.6159230116755,322.71131866425276 674.0157480333,321.08910319861025 676.1154855657369,320.2779953428544 687.314085740596,322.71131866425276 698.5126859154552,329.2001772080548 726.5091863516718,330.0112841515802 784.6019247602671,336.5001367260702 789.5013123378158,336.5001367260702 791.60104986839,334.8779240795411 797.9002624675632,338.12234903872013 800.0,338.12234903872013 797.9002624675632,337.3112429236062 767.8040244989097,335.6890304433182 716.0104986894876,330.0112841515802 699.9125109370798,329.2001772080548 693.6132983397692,327.57796306861565 686.6141732297838,322.71131866425276 675.415573053062,319.4668874023482 650.2187226619571,320.2779953428544 636.9203849527985,317.8446712740697 618.0227471590042,319.4668874023482 596.3254593200982,315.4113464616239 587.9265091884881,310.54469459690154 544.531933510676,304.8669303134084 539.63254593499,302.4336015195586 536.1329833772033,291.8891681251116 531.2335957996547,287.83361308975145 518.635170603171,291.8891681251116 513.0358705166727,295.1336106597446 501.83727034181356,310.54469459690154 490.6386701669544,313.78912950400263 482.239720037207,314.60023802518845 475.9405074361712,312.1669122171588 469.64129483886063,308.11136754322797 452.84339457564056,303.244711198844 430.4461942259222,291.8891681251116 400.3499562572688,290.2669463609345 387.0516185481101,285.4002790735103 370.2537182867527,282.15583255700767 351.3560804910958,281.34472071938217 340.8573928270489,282.15583255700767 335.258092738688,281.34472071938217 330.35870516113937,278.911384713836 319.1601049862802,275.66693554632366 297.4628171492368,276.4780479623005 263.167104113847,271.61137221800163 256.16797900386155,268.36692006513476 249.86876640468836,266.74469348881394 236.5704286955297,270.8002593019046 222.57217847928405,272.42248504795134 204.37445319257677,272.42248504795134 188.27646544389427,268.36692006513476 163.77952755987644,268.36692006513476 156.78040244989097,266.74469348881394" stroke="green" stroke-width="10" /></svg>