<?xml version="1.0" encoding="utf-8" ?>
<svg baseProfile="full" height="600" version="1.1" width="800" xmlns="http://www.w3.org/2000/svg" xmlns:ev="http://www.w3.org/2001/xml-events" xmlns:xlink="http://www.w3.org/1999/xlink"><defs /><polyline fill="none" points="32.44711818336509,87.24562333105132 33.37861439934932,88.14532754122047 36.0178536772728,91.74413977947552 36.63885115459561,93.90342358866474 37.57034737034701,100.56119865231449 43.78032214241102,140.14744907274144 45.48806520458311,148.7843308079755 52.163788084406406,192.68782416294562 52.474286823067814,196.28642258694163 54.95827673189342,205.64274404844036 57.442266640719026,222.73589518398512 60.857752765063196,241.44820711459033 61.32350087305531,247.92549950268585 63.96274015144445,264.2985489659477 65.6704832133837,270.05606862099376 69.39646807662211,293.8056381053757 71.72520861658268,306.93973208928946 77.0036871721968,328.88964298920473 77.62468464951962,332.84779451112263 80.72967203566805,340.4042408821406 86.16339996107854,356.23668999096844 89.73413545521908,364.51268625759985 100.91209004470147,395.09755223372485 103.55132932285778,404.63272531563416 107.43256355496123,416.3267349965754 109.91655346401967,425.32207419810584 121.56025616126135,456.8053994352231 122.49175237724558,459.32404113101074 123.57849796209484,460.94316603260813 126.99398408690467,463.281899372465 132.2724626432173,465.62062960572075 137.08519309130497,466.8799445987097 146.71065398817882,466.5201404069667 152.92062876001,465.8005318028736 159.90685037826188,463.82160662533715 175.43178730853833,460.76326333911857 187.38598874444142,457.16520561254583 192.35396856209263,455.18627072754316 216.57287017279305,449.2494527276722 228.21657287026756,447.99012512352783 244.82825538492762,446.5508924725 259.7321948376484,446.0111799251754 272.15214438177645,445.1116586449207 279.44886473868974,444.0322325024754 290.005821851315,443.13271021138644 292.1793130214792,443.67242364108097 293.1108092374634,444.3920412902953 293.73180671432056,445.29156293795677 294.04230545298196,446.5508924725 294.04230545298196,447.8102211061632 293.73180671432056,448.8896449326421 293.1108092374634,449.9690680971253 292.1793130214792,450.8685868951143 289.69532311265357,451.9480088457931 279.44886473868974,453.3872370843892 277.12012419942766,452.6676231121528 276.1886279839091,451.9480088457931 275.5676305061206,450.8685868951143 275.2571317679249,449.60926044906955 275.4123811372556,448.17002912191674 276.03337861434557,446.91070074553136 276.9648748303298,446.0111799251754 278.20686978450976,445.1116586449207 280.84610906243324,444.5719456569059 293.1108092374634,444.7518500041333 298.54453716264106,443.31261470669415 317.48496021702886,442.77290116617223 324.9369299435057,441.3336642503855 340.1513681348879,440.0743309831596 347.60333786159754,439.5346164503135 354.279060741188,439.5346164503135 366.07801280822605,438.8149968154612 375.2377255966421,435.93651533511 406.4428488255944,430.89916141855065 412.96332233631983,430.71925565530546 419.63904521614313,429.4599147948902 426.15951872686855,427.6608548608492 431.74849602160975,425.32207419810584 445.4104405201506,422.44357065478107 450.84416844532825,420.4645967378747 456.27789637073874,417.9458994451561 464.3508635745384,414.88747645902913 478.32330681127496,410.2098780841916 484.3780322140083,407.87107423564885 486.085775276646,406.7916252578725 498.5057248205412,401.93409666459775 507.97593634785153,399.59528182120994 536.0760721908882,393.2984571806737 544.9252862411086,391.85917981487 553.6192509217653,389.34044159197947 626.8969532311894,373.32837861031294 628.759945662925,373.1484669626225 630.1571899864357,373.8681134423241 635.4356685427483,384.3029543350567 638.8511546673253,391.49936028936645 647.2346206090879,407.6911661188351 649.252862410387,411.46923271543346 652.0473510574084,415.2472912038793 655.6180865515489,421.1842238740646 659.8098195227794,426.7613242043881 664.1568018626422,431.6187842892832 668.8142829420976,436.11642056540586 673.9375121286139,440.4341405798332 692.4121870754752,452.48771957331337 699.7089074323885,456.0857868602616 706.695129051106,460.0436523818644 728.895788860973,472.99660460615996 734.4847661552485,476.95443211041857 741.7814865128603,480.3725487034535 782.3015718995593,503.9393824986764 788.2010479331948,508.43683401861927 794.5662720745895,512.0347869628458 796.1187657674309,512.7543766690069 797.8265088298358,512.7543766690069 799.0685037842486,511.67499199917074 800.0,509.876016078284 800.0,508.79662964394083 799.8447506304365,507.8971404424519 798.4475063069258,506.457956764556 794.1005239665974,504.2991790426895 787.580050455872,499.98161565704504 780.1280807298608,496.38363808143185 765.5346400155686,487.74846189905657 750.0097030857578,478.21373899577884 726.7222976905759,464.7211183454492 721.1333203958347,460.5833606275846 716.4758393168449,457.525011715712 710.2658645447809,456.0857868602616 692.1016883368138,444.93175433395663 686.0469629343133,440.9738548374153 679.3712400542572,437.55566174705746 673.4717640210874,432.8781236053328 670.3667766347062,429.8197265616618 670.9877741124947,429.4599147948902 672.6955171742011,429.9996324169333 683.0972249174956,427.8407609371934 684.3392198719084,428.02066699485295 684.4944692412391,428.38047905580606 684.1839705025777,427.6608548608492 681.3894818553235,427.8407609371934 676.4215020376723,429.28000888432143 671.2982728506904,429.9996324169333 670.2115272656083,429.28000888432143 666.3302930330392,424.24263592081843 662.4490588009357,420.4645967378747 658.8783233067952,415.78701318305684 658.2573258294724,413.9879392751027 653.4445953811519,406.0719922380522 649.8738598877098,399.4153728586389 644.1296332231723,387.3614304601797 638.3854065588675,376.92660769843496 633.8831748496741,367.75110898714047 632.9516786336899,366.49172307760455 631.5544343099464,365.77207358251326 621.4632253053132,368.2908455291763 606.5592858528253,370.8096138716792 583.5823791965377,375.48731694585877 545.85678245686,384.4828648423427 538.4048127301503,386.6417894969927 507.97593634785153,393.6582763384795 501.30021346802823,394.737733369926 491.6747525713872,397.7961913650506 471.1818358239252,406.4318087847787 451.15466718398966,413.62812427280005 444.63419367326424,415.0673838405055 437.4927226859145,417.4061781279743 426.9357655735221,420.2846899086726 419.79429458547384,422.44357065478107 413.73956918297336,423.3431035176036 406.13235008739866,423.7029165335698 406.13235008739866,422.98329042759724 409.23733747331426,421.3641306119971 411.1003299045842,421.00431711797137 414.05006792163476,421.5440373319434 415.29206287581474,421.00431711797137 416.37880846112967,419.5650624043192 415.91306035313755,419.5650624043192 414.9815641371533,421.1842238740646 413.42907044431195,421.7239440329722 409.85833495040424,420.8244103428442 407.9953425191343,421.7239440329722 406.13235008739866,423.1631969815353 405.82185134873725,424.0627294765436 402.25111585482955,424.9622615124099 392.3151562195271,426.9412303722929 375.3929749659728,429.100102955068 362.81777605297975,429.4599147948902 333.786143993726,432.69821804366075 315.3114690473303,433.4178401788813 301.64952454855666,434.67717820755206 299.94178148638457,434.497272829758 296.836794100469,435.39679953380255 289.38482437399216,435.7566100861295 276.343877353007,437.1958515619044 274.17038618260995,436.4762309715734 273.39413933618926,435.57670481916284 273.08364059752785,434.497272829758 273.08364059752785,433.2379346729722 273.54938870551996,431.9785956143751 274.48088492127135,431.0790671640425 275.5676305061206,430.3594440728193 278.36211915384047,429.9996324169333 290.16107122018,431.7986899607349 291.09256743616425,432.15850124892313 291.71356491325423,433.0580291481456 292.1793130214792,434.1374620194547 291.55831554415636,436.6561361460481 291.4030661752913,437.1958515619044 287.52183194248937,438.63509186106967 274.79138365993276,438.8149968154612 259.7321948376484,439.89442615705775 254.14321754314005,440.614045350987 249.95148457214236,441.5135689289891 231.3215602557175,442.9528056977433 200.73743450408801,447.0906048542238 184.281001358293,451.2283942856011 178.53677469445392,453.3872370843892 162.39084028732032,457.70491474011214 153.85212497552857,458.4245266527869 145.31340966420248,459.86374959687237 135.99844750622287,460.5833606275846 133.82495633582585,460.40345789771527 132.89346012007445,459.86374959687237 131.65146516589448,458.2446237023105 130.09897147282027,451.58820160268806 121.40500679193065,427.48094876646064 118.14477003691718,418.66552761092316 113.48728895792738,409.49024646222824 109.29555598669685,398.15600960334996 106.65631670830771,392.2189992662752 94.70211527240463,358.9353887013858 93.30487094889395,353.1781597844674 89.57888608542271,342.7431343748467 88.64738986990415,337.8854290297604 84.61090626846999,330.68880387517856 79.64292645081878,312.69711225212086 76.38268969533965,297.044190931716 61.168251503724605,203.84345532290172 60.392004657303914,200.60473098116927 59.15000970335677,199.52515487623168 56.20027168607339,199.52515487623168 53.250533669488505,200.0649430116173 51.23229186842218,199.52515487623168 50.300795652903616,195.38677367084892 51.387541237985715,191.60824320057873 45.022317096590996,151.30341332877288 44.09082088107243,148.4244615820935 42.07257908000611,145.72544004174415 40.98583349492401,145.18563523702323 36.0178536772728,145.00570026546484 32.602367552695796,145.5455051253084 25.460896564880386,145.00570026546484 14.903939452487975,145.5455051253084 13.040947020985186,145.18563523702323 13.972443236969411,143.56621982879005 14.28294197563082,143.20634953613626 13.196196390548721,145.00570026546484 13.661944498308003,145.18563523702323 14.748690083622932,143.92609004781116 16.301183775998652,141.76686762698228 16.456433145562187,141.22706160781672 15.990685037802905,139.96751358598704 16.14593440713361,137.44841483602067 15.524936929810792,135.82899230677867 10.55695711215958,132.59014277695678 9.935959635302424,130.97071577626048 10.55695711215958,126.11242583137937 10.712206481723115,119.09487222862663 12.575198913225904,114.05661135510309 12.109450805233791,111.89735227834899 10.712206481723115,109.91802913096035 7.607219095574692,109.19827470672317 5.588977294508368,107.93870375625556 3.4154861248098314,107.39888735831482 3.72598486347124,106.31925406632945 2.794488647254184,105.95937615499133 2.4839899085927755,106.31925406632945 2.018241800600663,105.41955914977007 0.465748107759282,104.6998028853559 0.31049873819574714,103.6201679376536 0.6209974768571556,103.98004632705124 0.6209974768571556,104.87974197912263 0.0,105.59949816996232" stroke="green" stroke-width="10" /></svg>