<?xml version="1.0" encoding="utf-8" ?>
<svg baseProfile="full" height="600" version="1.1" width="800" xmlns="http://www.w3.org/2000/svg" xmlns:ev="http://www.w3.org/2001/xml-events" xmlns:xlink="http://www.w3.org/1999/xlink"><defs /><polyline fill="none" points="426.96278197085485,-1.1641532182693481e-10 424.88872181950137,17.127386884880252 425.1479793381877,147.23217166087124 426.1850094143301,170.367985126446 425.4072368578054,179.38188912032638 427.22203949000686,189.89807550399564 428.77758460398763,194.7054624616867 427.99981204699725,199.5128415543586 426.44426693348214,204.62067322432995 426.44426693348214,208.22619611781556 428.77758460398763,213.63447216304485 436.03679513465613,226.2537442347966 440.4441729565151,240.37524635647424 444.07377822184935,249.68939147237688 445.3700658166781,255.39804647059646 446.14783837320283,270.721223480301 446.14783837320283,283.6407028082758 445.11080829799175,319.0938659684034 446.14783837320283,345.5332347016083 445.8885808545165,373.47458182496484 444.07377822184935,460.9022426159354 445.8885808545165,474.7221846746979 447.7033834871836,483.1342915111454 460.92551695369184,533.6064270460047 462.2218045485206,534.5077073063003 465.07363725686446,533.9068538306747 468.7032425221987,532.40471960383 469.2217575600371,533.0055733867921 468.18472748436034,536.3102669971995 463.77734966250136,542.3187913161237 459.62922935932875,545.6234744584654 456.5181391313672,546.5247510338668 430.8516447553411,545.9239000141388 427.22203949000686,546.2243255390786 426.70352445263416,547.4260273331311 426.44426693348214,549.2285791033646 425.4072368578054,549.8294294477673 415.8147086557001,549.8294294477673 410.88881579600275,550.1298545736354 405.96292293583974,554.0353784207255 405.7036654171534,556.1383506496204 408.29624060634524,563.0481059569865 409.851785720326,572.3612287180731 409.851785720326,574.7646104488522 409.333270682022,577.7688348483061 413.7406485043466,590.9873857396888 412.9628759473562,593.9915935633471 406.9999530115165,596.0945372122806 379.00014096545056,598.7983196945861 357.7410244108178,599.9999999998836 356.70399433514103,599.6995799699798 355.4077067403123,597.5966388988309 354.62993418378755,587.0819109800505 353.3336465889588,583.1764310325962 351.25958643713966,579.8717901024502 348.66701124748215,577.7688348483061 345.03740598261356,578.0692571201362 344.0003759069368,577.7688348483061 343.2226033490151,575.665878090891 342.70408831210807,566.6531892352505 339.3337405649945,551.3315547712846 337.2596804141067,539.0141044605989 333.63007514877245,533.3060002317652 330.7782424399629,515.2803351712646 332.85230259085074,531.2030116698006 335.18562026228756,538.1128255818039 339.85225560329854,547.1256019300781 342.18557327380404,548.6277286360273 354.62993418378755,547.4260273331311 379.7779135219753,546.5247510338668 401.29628759482875,546.5247510338668 404.92589285969734,554.9366524171783" stroke="green" stroke-width="10" /></svg>