<?xml version="1.0" encoding="utf-8" ?>
<svg baseProfile="full" height="600" version="1.1" width="800" xmlns="http://www.w3.org/2000/svg" xmlns:ev="http://www.w3.org/2001/xml-events" xmlns:xlink="http://www.w3.org/1999/xlink"><defs /><polyline fill="none" points="59.77410946879536,247.64434809004888 54.213727192021906,242.81147682340816 45.87315377686173,239.589561002329 36.14248479343951,240.3950400808826 26.41181581094861,237.9786025970243 15.986099044792354,239.589561002329 5.560382274910808,246.0333913313225 0.695047783665359,252.4772163880989 0.0,259.7265132823959 1.3900955691933632,266.97580350376666 5.560382274910808,273.4196114372462 5.560382274910808,277.4469887195155 8.340573412366211,279.86341409990564 15.986099044792354,283.085313456133 30.582102517597377,283.8907880904153 41.70286707114428,283.085313456133 56.298870546743274,290.334582190495 85.49087749607861,292.7510036211461 111.90269330888987,298.3893174077384 123.71850564517081,298.3893174077384 128.5838401382789,296.77837102115154 155.69070373475552,295.9728977079503 170.98175499401987,293.5564772654325 192.52823631558567,293.5564772654325 242.57167680189013,304.83309965161607 257.86272806022316,312.88782004779205 268.2884448291734,311.27687662653625 293.3101650727913,311.27687662653625 337.09817549958825,318.5261194286868 367.6802780171856,319.3315904382616 400.3475238895044,323.35894425492734 411.4682884439826,321.74800297478214 435.09991311840713,324.96988520631567 473.3275412656367,327.38629601569846 496.9591659400612,332.2191154109314 508.07993049453944,339.46833894541487 515.0304083395749,345.91208759788424 528.2363162441179,346.7175558106974 536.5768896611407,345.91208759788424 543.5273675043136,346.7175558106974 548.3927019964904,349.9394278312102 551.1728931339458,353.9667660072446 556.0382276279852,357.9941021213308 560.2085143337026,361.21596953319386 564.3788010412827,361.21596953319386 592.1807124232873,352.35583098465577 604.691572544165,350.7448956319131 622.067767156288,351.5503633483313 629.0182450031862,349.9394278312102 641.5291051240638,352.35583098465577 706.8635968714952,357.188635064289 720.0695047769696,359.6050359918736 768.0278019104153,364.43783562770113 773.5881841853261,363.63236922910437 772.1980886161327,361.21596953319386 770.112945263274,360.4105028049089 731.8853171132505,362.02143618138507 721.4596003452316,361.21596953319386 703.3883579475805,357.9941021213308 676.2814943511039,358.7995690992102 674.1963509973139,355.5777006992139 672.1112076435238,341.8847453072667 670.7211120752618,325.7753555588424 672.1112076435238,324.16441477276385 683.9270199816674,324.96988520631567 697.1329278871417,331.41364571638405 713.1190269319341,330.60817594174296 739.5308427447453,333.0245850207284 745.7862728051841,335.44099335884675 779.1485664639622,336.2464626398869 800.0,339.46833894541487 799.3049522135407,337.05193183990195 797.219808860682,336.2464626398869 758.9921807106584,336.2464626398869 722.1546481298283,333.0245850207284 711.7289313627407,333.0245850207284 704.7784535167739,336.2464626398869 698.5230234563351,335.44099335884675 683.9270199816674,328.1917661204934 667.940920936875,326.58082582755014 660.9904430909082,326.58082582755014 635.273675063625,322.5534736569971 619.9826238043606,322.5534736569971 591.4856646386907,315.3042345624417 579.6698523024097,314.498763138894 549.0877497820184,308.8604608788155 542.1372719360515,304.027627160307 537.2719374438748,294.36195082962513 532.406602951698,291.945529892575 524.7610773220658,292.7510036211461 516.420503907837,294.36195082962513 513.6403127703816,296.77837102115154 509.4700260628015,304.83309965161607 506.6898349253461,308.05498879915103 498.3492615111172,311.27687662653625 495.56907037086785,308.05498879915103 494.8740225872025,304.83309965161607 492.78887923434377,304.027627160307 478.88792354241014,304.83309965161607 469.8523023445159,301.61120918765664 456.6463944381103,302.4166819280945 429.53953084070235,294.36195082962513 416.3336229342967,295.1674243090674 384.36142484657466,291.945529892575 363.50999131053686,287.11268579773605 355.8644656809047,287.9181600208394 332.92788879107684,284.6962626404129 311.38140747044235,279.86341409990564 299.5655951332301,280.6688890638761 293.3101650727913,278.25246392795816 272.4587315376848,274.22508705966175 259.25282363127917,273.4196114372462 239.7914856635034,275.83603805303574 211.2945264969021,275.03056259592995 197.39357080683112,271.80865994794294 196.00347523763776,268.58675598166883 195.30842745210975,263.75389756122604 193.91833188477904,262.1429440965876 190.4430929608643,263.75389756122604 188.3579496089369,268.58675598166883 185.57775846868753,271.0031840787269 176.54213727079332,271.80865994794294 168.89661164116114,271.0031840787269 162.641181579791,270.1977081289515 146.65508253592998,262.94842087011784 134.14422241412103,258.9210361777805 115.3779322328046,257.3100817250088 96.6116420486942,253.28269415162504 82.01563857402653,254.08817183040082 69.50477845128626,251.67173854494467 59.079061683267355,246.0333913313225 56.298870546743274,242.81147682340816 52.12858383823186,240.3950400808826 41.00781928561628,239.589561002329 31.277150301262736,236.36764386156574 25.021720240823925,235.56216437229887 20.85143353510648,236.36764386156574 13.900955690070987,240.3950400808826 7.645525629632175,249.2553045176901 4.865334490314126,256.5046043735929 4.865334490314126,262.1429440965876 11.81581233534962,277.4469887195155 12.510860119946301,280.6688890638761 18.071242396719754,285.50173710798845 28.496959165669978,287.9181600208394 40.31277150195092,284.6962626404129 47.958297131583095,284.6962626404129 63.249348390847445,291.1400560834445 86.18592527974397,294.36195082962513 104.25716767925769,299.1947904760018 111.90269330888987,300.8057363643311 118.85317115392536,300.0002634613775 126.49869678448886,302.4166819280945 166.11642050370574,304.027627160307 180.0173761928454,304.027627160307 239.7914856635034,313.6932916357182 249.52215464692563,318.5261194286868 305.8210251936689,320.13706136727706 323.89226759132,322.5534736569971 332.92788879107684,324.96988520631567 352.3892267579213,326.58082582755014 372.5456125084311,330.60817594174296 398.262380537577,333.0245850207284 413.5534317968413,330.60817594174296 427.45438748877496,330.60817594174296 448.30582102388144,332.2191154109314 467.07211120519787,330.60817594174296 478.88792354241014,337.05193183990195 492.0938314497471,336.2464626398869 496.26411815639585,337.85740095563233 515.7254561232403,349.9394278312102 539.3570807976648,350.7448956319131 544.2224152889103,353.1612985357642 553.9530842732638,362.02143618138507 559.5134665491059,363.63236922910437 570.6342311017215,363.63236922910437 586.6203301465139,356.3831679234281 606.776715897955,354.77223339444026 642.2241529095918,356.3831679234281 654.0399652468041,357.9941021213308 663.0755864456296,357.188635064289 670.7211120752618,358.7995690992102 674.8913987819105,356.3831679234281 673.5013032127172,342.6902139293961 671.4161598579958,334.6355239963159 671.4161598579958,328.997236143332 672.8062554271892,326.58082582755014 688.0973066883162,328.997236143332 697.8279756717384,333.830054548569 703.3883579475805,335.44099335884675 733.9704604679719,334.6355239963159 747.8714161580428,337.05193183990195 799.3049522135407,340.27380781434476 781.2337098158896,337.05193183990195 740.2258905284107,335.44099335884675 713.8140747165307,331.41364571638405 706.8635968714952,332.2191154109314 696.437880102545,331.41364571638405 694.352736748755,331.41364571638405 686.7072111191228,324.96988520631567 681.1468288423494,322.5534736569971 661.6854908764362,321.74800297478214 654.7350130304694,322.5534736569971 647.0894874008372,319.3315904382616 636.663770631887,318.5261194286868 615.1172893112525,312.08234837977216 597.7410946991295,311.27687662653625 553.9530842732638,304.83309965161607 545.6125108581036,301.61120918765664 542.1372719360515,297.583844255656 539.3570807976648,291.1400560834445 534.4917463064194,287.9181600208394 515.7254561232403,291.1400560834445 511.5551694156602,294.36195082962513 508.07993049453944,301.61120918765664 505.99478713888675,304.027627160307 501.8245004331693,307.2495166347362 496.9591659400612,307.2495166347362 495.56907037086785,308.8604608788155 490.00868809595704,305.6385720637627 487.9235447412357,304.83309965161607 485.1433536047116,307.2495166347362 478.88792354241014,300.0002634613775 474.71763683576137,296.77837102115154 462.9018244994804,299.1947904760018 449.0008688084781,298.3893174077384 434.4048653328791,293.5564772654325 413.5534317968413,292.7510036211461 401.73761945962906,291.1400560834445 366.98523023352027,283.085313456133 349.6090356204659,282.27983874222264 322.5021720221266,276.64151342585683 307.21112076193094,278.25246392795816 298.87054734956473,276.64151342585683 293.3101650727913,274.22508705966175 262.0330147687346,270.1977081289515 248.82710686232895,270.1977081289515 223.80538661871105,272.61413573333994 202.95395308267325,271.80865994794294 191.1381407463923,266.97580350376666 169.5916594248265,269.3922320972197 149.4352736743167,259.7265132823959 125.80364899989218,252.4772163880989 102.17202432453632,247.64434809004888 93.13640312757343,249.2553045176901 83.40573414321989,249.2553045176901 67.41963509842753,244.42243424337357" stroke="green" stroke-width="10" /></svg>