<?xml version="1.0" encoding="utf-8" ?>
<svg baseProfile="full" height="600" version="1.1" width="800" xmlns="http://www.w3.org/2000/svg" xmlns:ev="http://www.w3.org/2001/xml-events" xmlns:xlink="http://www.w3.org/1999/xlink"><defs /><polyline fill="none" points="386.9070678371936,0.0 388.40340294130147,27.45942792738788 389.6503488612361,33.529370729927905 390.3985164142214,34.97459328582045 389.89973804494366,38.44312440266367 386.9070678371936,39.02121250866912 382.66745170764625,39.31025651760865 381.4205057877116,40.46643225592561 381.91928415512666,43.93495663499925 385.1613435484469,49.715821141027845 385.9095111005008,53.184334169956855 385.6601219167933,63.58984771720134 385.9095111005008,72.83916093572043 384.66256518056616,88.44730836036615 385.1613435484469,96.25134975393303 384.9119543642737,119.08527304790914 385.9095111005008,131.80282123805955 385.6601219167933,163.59644139674492 384.66256518056616,178.91505800548475 385.9095111005008,193.36650701391045 385.9095111005008,213.02035911078565 387.9046245729551,227.1826090066461 389.40095967659727,228.916757179657 391.6454623336904,228.62773255747743 395.6356892785989,227.47163377562538 397.6308027510531,228.0496832258068 392.8924082540907,236.72041079378687 392.3936298866756,239.61064740654547 394.139354174491,243.94599678530358 403.3667539842427,261.2873278207844 407.3569809286855,273.13717618514784 410.59904032200575,281.51874625706114 411.5965970582329,291.63440118555445 411.84598624240607,305.50724051787984 410.8484295057133,321.40311856905464 410.59904032200575,339.0329878819175 411.09781869035214,352.03855871839914 411.84598624240607,362.15396134357434 410.34965113783255,460.12698841968086 409.8508727699518,477.4669936253922 408.85331603325903,480.35698415571824 409.3520944016054,485.2699612787692 413.8410997148603,507.23375462542754 417.33254829095677,519.9495570153231 425.06361299660057,552.0278044368606 427.3081156536937,564.7434054134646 426.8093372853473,565.6103761249688 424.8142238133587,566.188356451923 416.33499155472964,565.3213859174866 405.3618674566969,565.8993663029978 394.88752172654495,565.6103761249688 393.1417974382639,566.4773465709295 392.3936298866756,568.7892664613901 391.14668396580964,569.6562359327218 386.4082894688472,569.0782563152025 381.91928415512666,571.3901740786387 376.43272210657597,570.5232051388593 373.93883026530966,571.9681532243267 372.69188434584066,574.2800686260452 373.44005189836025,577.7479381845333 375.18577618617564,582.6607461128151 377.1808896586299,592.486336367554 375.9339437382296,597.977092524292 374.6869978182949,599.7110133065144 373.6894410816021,600.0 373.93883026530966,598.555066236644 373.93883026530966,599.4220265829936 373.1906627137214,597.1101317346329 373.1906627137214,595.6651964941993" stroke="green" stroke-width="10" /></svg>