<?xml version="1.0" standalone="no"?><!DOCTYPE svg PUBLIC "-//W3C//DTD SVG 1.1//EN" "http://www.w3.org/Graphics/SVG/1.1/DTD/svg11.dtd"><svg t="1742888541191" class="icon" viewBox="0 0 1024 1024" version="1.1" xmlns="http://www.w3.org/2000/svg" p-id="2695" xmlns:xlink="http://www.w3.org/1999/xlink" width="20" height="20"><path d="M443.733333 682.666667c34.133333 0 59.733333-17.066667 76.8-46.933334L644.266667 384h34.133333l25.6 72.533333C640 494.933333 597.333333 563.2 597.333333 640c0 119.466667 93.866667 213.333333 213.333334 213.333333s213.333333-93.866667 213.333333-213.333333-93.866667-213.333333-213.333333-213.333333c-8.533333 0-17.066667 0-25.6 4.266666l-42.666667-132.266666H810.666667c17.066667 0 34.133333 12.8 38.4 29.866666 4.266667 8.533333 12.8 12.8 21.333333 12.8h42.666667c8.533333 0 12.8-4.266667 17.066666-8.533333s4.266667-12.8 4.266667-17.066667C925.866667 256 870.4 213.333333 810.666667 213.333333h-115.2c-17.066667 0-34.133333 8.533333-42.666667 21.333334-8.533333 12.8-12.8 29.866667-8.533333 46.933333l8.533333 17.066667h-298.666667C324.266667 298.666667 298.666667 324.266667 298.666667 349.866667v12.8c0 8.533333 0 12.8-4.266667 21.333333l-25.6 51.2c-17.066667-4.266667-38.4-8.533333-55.466667-8.533333-119.466667 0-213.333333 93.866667-213.333333 213.333333s93.866667 213.333333 213.333333 213.333333c85.333333 0 162.133333-51.2 196.266667-128H307.2c-21.333333 25.6-55.466667 42.666667-93.866667 42.666667-72.533333 0-128-55.466667-128-128s55.466667-128 128-128h17.066667l-38.4 76.8c-8.533333 21.333333-8.533333 42.666667 4.266667 64s29.866667 29.866667 51.2 29.866667h196.266666z m-162.133333-85.333334l21.333333-46.933333c12.8 12.8 21.333333 29.866667 29.866667 46.933333H281.6z m162.133333 0h-21.333333c-8.533333-51.2-38.4-93.866667-76.8-123.733333l25.6-51.2L384 384h166.4l-106.666667 213.333333z m366.933334 170.666667c-72.533333 0-128-55.466667-128-128 0-42.666667 21.333333-76.8 51.2-102.4l29.866666 93.866667c4.266667 12.8 17.066667 21.333333 29.866667 21.333333h46.933333c8.533333 0 17.066667-8.533333 12.8-21.333333l-42.666666-123.733334c68.266667 0 123.733333 59.733333 123.733333 128C938.666667 712.533333 883.2 768 810.666667 768zM234.666667 213.333333h128c12.8 0 21.333333-8.533333 21.333333-21.333333v-42.666667c0-12.8-8.533333-21.333333-21.333333-21.333333h-128c-12.8 0-21.333333 8.533333-21.333334 21.333333v42.666667c0 12.8 8.533333 21.333333 21.333334 21.333333z" p-id="2696"></path></svg>